<?xml version="1.0" encoding="UTF-8" standalone="no"?>
<!DOCTYPE svg PUBLIC "-//W3C//DTD SVG 1.1//EN" "http://www.w3.org/Graphics/SVG/1.1/DTD/svg11.dtd">
<svg version="1.1" xmlns="http://www.w3.org/2000/svg" xmlns:xlink="http://www.w3.org/1999/xlink" preserveAspectRatio="xMidYMid meet" viewBox="-1 -0.9999999999999991 68 68" width="64" height="64"><defs><path d="M51.13 0.51L52.93 1.12L54.64 1.96L56.25 2.99L57.73 4.21L59.11 5.62L60.32 7.16L61.39 8.87L62.29 10.7L63.02 12.66L63.55 14.71L63.89 16.87L64 19.08L63.55 25.25L62.29 30.94L60.32 36.18L57.82 40.96L54.93 45.27L51.75 49.16L48.41 52.59L45.09 55.55L41.89 58.09L38.97 60.14L36.44 61.75L34.44 62.91L33.12 63.61L32.62 63.9L32.53 63.9L32.51 63.94L32.45 63.94L32.42 63.97L32.28 63.97L32.25 64L32.11 64L32.08 63.97L31.94 63.97L31.92 63.94L31.83 63.94L31.8 63.9L31.75 63.9L31.04 63.55L29.58 62.75L27.48 61.53L24.89 59.89L21.91 57.8L18.71 55.26L15.4 52.31L12.08 48.9L8.93 45.04L6.07 40.77L3.6 36.08L1.69 30.91L0.45 25.32L0 19.28L0.11 17.03L0.45 14.88L0.98 12.79L1.71 10.83L2.61 8.96L3.71 7.23L4.94 5.65L6.32 4.24L7.81 3.02L9.44 1.96L11.15 1.12L12.98 0.51L14.89 0.13L16.86 0L18.26 0.06L19.67 0.29L21.01 0.61L22.34 1.06L23.6 1.61L24.84 2.28L25.99 3.08L27.08 3.98L28.12 4.95L29.11 6.04L29.98 7.2L30.79 8.48L31.52 9.8L32.14 11.21L32.76 9.8L33.46 8.48L34.28 7.23L35.15 6.07L36.13 4.98L37.17 4.02L38.27 3.12L39.42 2.31L40.63 1.64L41.89 1.06L43.21 0.61L44.53 0.29L45.91 0.1L47.31 0L49.25 0.13L51.13 0.51ZM44.28 2.96L42.84 3.41L41.47 4.02L40.15 4.79L38.91 5.72L37.73 6.78L36.69 7.97L35.74 9.25L34.92 10.67L34.22 12.18L33.66 13.78L33.24 15.49L33.21 15.61L33.15 15.74L33.1 15.84L33.04 15.97L32.96 16.06L32.87 16.13L32.76 16.22L32.67 16.29L32.56 16.35L32.45 16.39L32.37 16.45L32.25 16.48L32.03 16.48L31.69 16.39L31.58 16.32L31.49 16.26L31.38 16.16L31.33 16.06L31.24 15.97L31.19 15.87L31.07 15.61L31.04 15.49L30.62 13.78L30.03 12.14L29.33 10.63L28.49 9.22L27.53 7.9L26.49 6.71L25.34 5.69L24.08 4.76L22.76 4.02L21.38 3.41L19.92 2.96L18.4 2.67L16.86 2.6L15 2.73L13.26 3.08L11.58 3.73L9.97 4.53L8.51 5.59L7.16 6.81L5.93 8.19L4.86 9.73L3.96 11.44L3.23 13.24L2.7 15.16L2.36 17.19L2.25 19.28L2.7 25L3.93 30.33L5.84 35.24L8.29 39.74L11.13 43.82L14.22 47.52L17.45 50.76L20.68 53.59L23.8 56L26.63 57.99L29.05 59.53L30.96 60.63L32.2 61.3L33.4 60.66L35.29 59.57L37.68 58.02L40.48 56.1L43.55 53.69L46.75 50.86L49.92 47.61L52.99 43.92L55.8 39.81L58.21 35.28L60.09 30.3L61.3 24.9L61.75 19.08L61.64 17.03L61.3 15.04L60.77 13.14L60.07 11.34L59.17 9.67L58.1 8.13L56.89 6.75L55.54 5.56L54.08 4.53L52.54 3.69L50.85 3.08L49.11 2.7L47.31 2.57L45.79 2.67L44.28 2.96Z" id="cIl41Eq57"></path><path d="M51.13 0.51L52.93 1.12L54.64 1.96L56.25 2.99L57.73 4.21L59.11 5.62L60.32 7.16L61.39 8.87L62.29 10.7L63.02 12.66L63.55 14.71L63.89 16.87L64 19.08L63.55 25.25L62.29 30.94L60.32 36.18L57.82 40.96L54.93 45.27L51.75 49.16L48.41 52.59L45.09 55.55L41.89 58.09L38.97 60.14L36.44 61.75L34.44 62.91L33.12 63.61L32.62 63.9L32.53 63.9L32.51 63.94L32.45 63.94L32.42 63.97L32.28 63.97L32.25 64L32.11 64L32.08 63.97L31.94 63.97L31.92 63.94L31.83 63.94L31.8 63.9L31.75 63.9L31.04 63.55L29.58 62.75L27.48 61.53L24.89 59.89L21.91 57.8L18.71 55.26L15.4 52.31L12.08 48.9L8.93 45.04L6.07 40.77L3.6 36.08L1.69 30.91L0.45 25.32L0 19.28L0.11 17.03L0.45 14.88L0.98 12.79L1.71 10.83L2.61 8.96L3.71 7.23L4.94 5.65L6.32 4.24L7.81 3.02L9.44 1.96L11.15 1.12L12.98 0.51L14.89 0.13L16.86 0L18.26 0.06L19.67 0.29L21.01 0.61L22.34 1.06L23.6 1.61L24.84 2.28L25.99 3.08L27.08 3.98L28.12 4.95L29.11 6.04L29.98 7.2L30.79 8.48L31.52 9.8L32.14 11.21L32.76 9.8L33.46 8.48L34.28 7.23L35.15 6.07L36.13 4.98L37.17 4.02L38.27 3.12L39.42 2.31L40.63 1.64L41.89 1.06L43.21 0.61L44.53 0.29L45.91 0.1L47.31 0L49.25 0.13L51.13 0.51ZM44.28 2.96L42.84 3.41L41.47 4.02L40.15 4.79L38.91 5.72L37.73 6.78L36.69 7.97L35.74 9.25L34.92 10.67L34.22 12.18L33.66 13.78L33.24 15.49L33.21 15.61L33.15 15.74L33.1 15.84L33.04 15.97L32.96 16.06L32.87 16.13L32.76 16.22L32.67 16.29L32.56 16.35L32.45 16.39L32.37 16.45L32.25 16.48L32.03 16.48L31.69 16.39L31.58 16.32L31.49 16.26L31.38 16.16L31.33 16.06L31.24 15.97L31.19 15.87L31.07 15.61L31.04 15.49L30.62 13.78L30.03 12.14L29.33 10.63L28.49 9.22L27.53 7.9L26.49 6.71L25.34 5.69L24.08 4.76L22.76 4.02L21.38 3.41L19.92 2.96L18.4 2.67L16.86 2.6L15 2.73L13.26 3.08L11.58 3.73L9.97 4.53L8.51 5.59L7.16 6.81L5.93 8.19L4.86 9.73L3.96 11.44L3.23 13.24L2.7 15.16L2.36 17.19L2.25 19.28L2.7 25L3.93 30.33L5.84 35.24L8.29 39.74L11.13 43.82L14.22 47.52L17.45 50.76L20.68 53.59L23.8 56L26.63 57.99L29.05 59.53L30.96 60.63L32.2 61.3L33.4 60.66L35.29 59.57L37.68 58.02L40.48 56.1L43.55 53.69L46.75 50.86L49.92 47.61L52.99 43.92L55.8 39.81L58.21 35.28L60.09 30.3L61.3 24.9L61.75 19.08L61.64 17.03L61.3 15.04L60.77 13.14L60.07 11.34L59.17 9.67L58.1 8.13L56.89 6.75L55.54 5.56L54.08 4.53L52.54 3.69L50.85 3.08L49.11 2.7L47.31 2.57L45.79 2.67L44.28 2.96Z" id="e1IYEngZxP"></path></defs><g><g><use xlink:href="#cIl41Eq57" opacity="1" fill="#50c3af" fill-opacity="1"></use><g><use xlink:href="#cIl41Eq57" opacity="1" fill-opacity="0" stroke="#000000" stroke-width="1" stroke-opacity="0"></use></g></g><g><use xlink:href="#e1IYEngZxP" opacity="1" fill="#000000" fill-opacity="0"></use><g><use xlink:href="#e1IYEngZxP" opacity="1" fill-opacity="0" stroke="#000000" stroke-width="1" stroke-opacity="0"></use></g></g></g></svg>