<?xml version="1.0" encoding="UTF-8" standalone="no"?>
<!DOCTYPE svg PUBLIC "-//W3C//DTD SVG 1.1//EN" "http://www.w3.org/Graphics/SVG/1.1/DTD/svg11.dtd">
<svg version="1.1" xmlns="http://www.w3.org/2000/svg" xmlns:xlink="http://www.w3.org/1999/xlink" preserveAspectRatio="xMidYMid meet" viewBox="-1 -1 68 68" width="64" height="64"><defs><path d="M63 43.75C63 40.62 63 38.89 63 38.54C63.59 38.14 64 37.42 64 36.57C64 16.37 49.67 0 32 0C14.33 0 0 16.37 0 36.57C0 37.42 0.4 38.14 1 38.54C1 39.06 1 43.23 1 43.75C0.41 44.15 0 44.87 0 45.71C0 46.63 0 53.94 0 54.86C0 56.11 0.9 57.14 2 57.14C3.1 57.14 4 56.11 4 54.86C4 54.78 4 54.4 4 53.71C4.1 53.71 4.9 53.71 5 53.71C5 56.46 5 57.98 5 58.29C5 61.43 7.25 64 10 64C10.1 64 10.9 64 11 64C12.65 64 14 62.46 14 60.57C14 58.51 14 42.06 14 40C14 38.11 12.65 36.57 11 36.57C10.9 36.57 10.1 36.57 10 36.57C7.25 36.57 5 39.14 5 42.29C5 42.67 5 44.57 5 48C4.9 48 4.1 48 4 48C4 46.63 4 45.87 4 45.71C4 44.87 3.59 44.15 3 43.75C3 43.23 3 39.06 3 38.54C3.59 38.14 4 37.42 4 36.57C4 18.9 16.54 4.57 32 4.57C47.46 4.57 60 18.9 60 36.57C60 37.42 60.4 38.14 61 38.54C61 39.06 61 43.23 61 43.75C60.41 44.15 60 44.87 60 45.71C60 45.87 60 46.63 60 48C59.9 48 59.1 48 59 48C59 44.57 59 42.67 59 42.29C59 39.14 56.75 36.57 54 36.57C53.9 36.57 53.1 36.57 53 36.57C51.35 36.57 50 38.11 50 40C50 42.06 50 58.51 50 60.57C50 62.46 51.35 64 53 64C53.1 64 53.9 64 54 64C56.75 64 59 61.43 59 58.29C59 57.98 59 56.46 59 53.71C59.1 53.71 59.9 53.71 60 53.71C60 54.4 60 54.78 60 54.86C60 56.11 60.9 57.14 62 57.14C63.1 57.14 64 56.11 64 54.86C64 53.94 64 46.63 64 45.71C64 44.87 63.59 44.15 63 43.75" id="b1advltOri"></path><path d="M63 43.75C63 40.62 63 38.89 63 38.54C63.59 38.14 64 37.42 64 36.57C64 16.37 49.67 0 32 0C14.33 0 0 16.37 0 36.57C0 37.42 0.4 38.14 1 38.54C1 39.06 1 43.23 1 43.75C0.41 44.15 0 44.87 0 45.71C0 46.63 0 53.94 0 54.86C0 56.11 0.9 57.14 2 57.14C3.1 57.14 4 56.11 4 54.86C4 54.78 4 54.4 4 53.71C4.1 53.71 4.9 53.71 5 53.71C5 56.46 5 57.98 5 58.29C5 61.43 7.25 64 10 64C10.1 64 10.9 64 11 64C12.65 64 14 62.46 14 60.57C14 58.51 14 42.06 14 40C14 38.11 12.65 36.57 11 36.57C10.9 36.57 10.1 36.57 10 36.57C7.25 36.57 5 39.14 5 42.29C5 42.67 5 44.57 5 48C4.9 48 4.1 48 4 48C4 46.63 4 45.87 4 45.71C4 44.87 3.59 44.15 3 43.75C3 43.23 3 39.06 3 38.54C3.59 38.14 4 37.42 4 36.57C4 18.9 16.54 4.57 32 4.57C47.46 4.57 60 18.9 60 36.57C60 37.42 60.4 38.14 61 38.54C61 39.06 61 43.23 61 43.75C60.41 44.15 60 44.87 60 45.71C60 45.87 60 46.63 60 48C59.9 48 59.1 48 59 48C59 44.57 59 42.67 59 42.29C59 39.14 56.75 36.57 54 36.57C53.9 36.57 53.1 36.57 53 36.57C51.35 36.57 50 38.11 50 40C50 42.06 50 58.51 50 60.57C50 62.46 51.35 64 53 64C53.1 64 53.9 64 54 64C56.75 64 59 61.43 59 58.29C59 57.98 59 56.46 59 53.71C59.1 53.71 59.9 53.71 60 53.71C60 54.4 60 54.78 60 54.86C60 56.11 60.9 57.14 62 57.14C63.1 57.14 64 56.11 64 54.86C64 53.94 64 46.63 64 45.71C64 44.87 63.59 44.15 63 43.75" id="b1TgVx5dJu"></path></defs><g><g><use xlink:href="#b1advltOri" opacity="1" fill="#50c3af" fill-opacity="1"></use><g><use xlink:href="#b1advltOri" opacity="1" fill-opacity="0" stroke="#000000" stroke-width="1" stroke-opacity="0"></use></g></g><g><use xlink:href="#b1TgVx5dJu" opacity="1" fill="#000000" fill-opacity="0"></use><g><use xlink:href="#b1TgVx5dJu" opacity="1" fill-opacity="0" stroke="#000000" stroke-width="1" stroke-opacity="0"></use></g></g></g></svg>