<?xml version="1.0" encoding="UTF-8" standalone="no"?>
<!DOCTYPE svg PUBLIC "-//W3C//DTD SVG 1.1//EN" "http://www.w3.org/Graphics/SVG/1.1/DTD/svg11.dtd">
<svg version="1.1" xmlns="http://www.w3.org/2000/svg" xmlns:xlink="http://www.w3.org/1999/xlink" preserveAspectRatio="xMidYMid meet" viewBox="0 0 640 640" width="640" height="640"><defs><path d="M543.79 0.3L547.78 0.69L551.75 1.22L555.71 1.9L559.64 2.74L563.55 3.73L567.42 4.88L571.25 6.17L575.04 7.62L578.78 9.22L582.47 10.97L586.1 12.88L589.67 14.93L593.17 17.14L596.6 19.51L599.96 22.02L603.23 24.69L606.42 27.51L609.51 30.48L612.48 33.57L615.3 36.76L617.97 40.03L620.49 43.38L622.85 46.82L625.06 50.32L627.12 53.89L629.02 57.52L630.78 61.21L632.38 64.95L633.82 68.73L635.12 72.57L636.26 76.44L637.25 80.34L638.09 84.27L638.78 88.23L639.31 92.2L639.69 96.19L639.92 100.19L640 104.2L639.92 108.2L639.69 112.2L639.31 116.19L638.78 120.17L638.09 124.12L637.25 128.05L636.26 131.96L635.12 135.83L633.82 139.66L632.37 143.45L630.77 147.19L629.02 150.88L627.11 154.51L625.05 158.08L622.84 161.58L620.48 165.01L617.96 168.37L615.29 171.64L612.47 174.83L609.5 177.93L191.76 595.67L191.75 595.68L191.74 595.68L191.74 595.69L191.73 595.7L191.72 595.7L191.71 595.71L191.71 595.71L191.7 595.72L191.69 595.73L191.68 595.73L191.67 595.74L191.66 595.75L191.65 595.75L191.64 595.76L191.63 595.77L191.62 595.77L191.58 595.8L191.57 595.81L191.57 595.81L191.55 595.82L191.54 595.83L191.53 595.84L191.52 595.84L191.51 595.85L191.51 595.86L191.5 595.86L191.49 595.87L191.48 595.87L191.48 595.88L191.47 595.89L191.46 595.89L191.46 595.9L191.44 595.92L191.42 595.94L191.4 595.95L191.37 595.97L191.35 595.99L191.33 596.01L191.31 596.02L191.29 596.04L191.27 596.05L191.25 596.07L191.23 596.09L191.21 596.1L191.19 596.12L191.17 596.13L191.15 596.15L191.13 596.16L191.11 596.18L191.08 596.19L191.06 596.21L191.04 596.22L191.02 596.24L190.98 596.27L190.94 596.3L190.92 596.31L190.9 596.33L190.87 596.34L190.85 596.36L190.83 596.37L190.81 596.38L190.79 596.4L190.77 596.42L190.75 596.43L190.73 596.45L190.71 596.46L190.68 596.48L190.66 596.49L190.64 596.51L190.62 596.53L190.57 596.57L190.51 596.61L190.46 596.65L190.4 596.69L190.35 596.73L190.29 596.78L190.24 596.82L190.18 596.86L190.13 596.9L190.07 596.93L190.02 596.97L189.96 597.01L189.9 597.05L189.85 597.09L189.79 597.13L189.73 597.16L189.67 597.2L189.62 597.24L189.56 597.27L189.5 597.31L189.44 597.34L189.38 597.38L189.33 597.41L189.27 597.45L189.21 597.48L189.15 597.52L189.09 597.55L189.03 597.58L188.97 597.61L188.91 597.65L188.85 597.68L188.79 597.71L188.73 597.74L188.66 597.77L188.6 597.8L188.54 597.83L188.48 597.86L188.42 597.89L188.36 597.92L188.29 597.95L188.26 597.96L188.24 597.98L188.21 597.99L188.18 598L188.15 598.02L188.12 598.03L188.09 598.04L188.06 598.05L188.04 598.06L188.01 598.08L187.98 598.09L187.95 598.1L187.92 598.11L187.89 598.13L187.87 598.14L187.84 598.15L187.81 598.16L187.78 598.17L187.75 598.18L187.72 598.19L187.7 598.21L187.67 598.22L187.64 598.23L187.61 598.24L187.58 598.25L187.55 598.26L187.52 598.27L187.5 598.28L187.47 598.29L187.44 598.3L187.41 598.31L187.38 598.32L187.35 598.33L187.32 598.34L187.29 598.35L187.26 598.36L187.23 598.37L187.21 598.38L187.18 598.39L187.15 598.4L187.12 598.41L187.1 598.42L187.08 598.43L187.06 598.44L187.03 598.44L187.01 598.45L186.99 598.46L186.97 598.47L186.95 598.48L186.92 598.49L186.9 598.5L186.88 598.51L186.86 598.52L186.84 598.53L186.81 598.54L186.75 598.57L186.73 598.58L186.7 598.59L186.68 598.6L186.66 598.61L186.64 598.62L186.62 598.63L186.59 598.64L186.57 598.65L186.55 598.66L186.53 598.66L186.51 598.67L186.48 598.68L186.46 598.69L186.44 598.7L186.42 598.71L186.39 598.71L186.37 598.72L186.35 598.73L186.32 598.73L186.3 598.74L186.28 598.75L186.25 598.75L14.24 639.7L14.17 639.71L14.1 639.73L14.04 639.74L13.97 639.76L13.91 639.77L13.84 639.79L13.77 639.8L13.71 639.81L13.64 639.82L13.57 639.84L13.51 639.85L13.44 639.86L13.37 639.87L13.3 639.88L13.24 639.89L13.17 639.9L13.1 639.91L13.04 639.92L12.97 639.93L12.9 639.93L12.84 639.94L12.77 639.95L12.7 639.96L12.63 639.96L12.57 639.97L12.5 639.97L12.43 639.98L12.37 639.98L12.3 639.99L12.23 639.99L12.16 640L12.1 640L12.03 640L11.96 640L11.9 640.01L11.83 640.01L11.76 640.01L11.69 640.01L11.63 640.01L11.56 640.01L11.45 640.01L11.34 640.01L11.22 640.01L11.11 640L11 640L10.89 639.99L10.78 639.98L10.66 639.98L10.55 639.97L10.44 639.96L10.33 639.95L10.22 639.93L10.11 639.92L10 639.91L9.88 639.89L9.77 639.87L9.66 639.85L9.55 639.84L9.44 639.82L9.33 639.79L9.22 639.77L9.11 639.75L9 639.72L8.89 639.7L8.78 639.67L8.67 639.64L8.56 639.62L8.45 639.59L8.35 639.55L8.24 639.52L8.13 639.49L8.02 639.46L7.91 639.42L7.81 639.38L7.7 639.35L7.59 639.31L7.49 639.27L7.38 639.23L7.28 639.19L7.17 639.14L7.07 639.1L6.96 639.05L6.86 639.01L6.75 638.96L6.65 638.91L6.55 638.86L6.44 638.81L6.34 638.76L6.24 638.71L6.14 638.66L6.04 638.6L5.94 638.55L5.84 638.49L5.74 638.44L5.64 638.38L5.54 638.32L5.45 638.26L5.35 638.2L5.25 638.14L5.16 638.08L5.06 638.01L4.97 637.95L4.87 637.88L4.78 637.82L4.69 637.75L4.59 637.68L4.5 637.61L4.41 637.54L4.32 637.47L4.23 637.39L4.14 637.32L4.05 637.25L3.97 637.17L3.88 637.1L3.79 637.02L3.71 636.94L3.62 636.86L3.54 636.78L3.45 636.7L3.37 636.62L3.3 636.54L3.22 636.47L3.15 636.39L3.08 636.31L3.01 636.24L2.94 636.16L2.87 636.08L2.81 636L2.74 635.92L2.68 635.84L2.61 635.75L2.55 635.67L2.49 635.59L2.42 635.51L2.36 635.42L2.3 635.34L2.25 635.25L2.19 635.17L2.13 635.08L2.07 634.99L2.02 634.91L1.96 634.82L1.91 634.73L1.86 634.64L1.81 634.56L1.75 634.47L1.7 634.38L1.65 634.29L1.6 634.2L1.55 634.11L1.51 634.02L1.46 633.93L1.41 633.83L1.37 633.74L1.32 633.65L1.28 633.56L1.23 633.47L1.19 633.37L1.14 633.28L1.1 633.19L1.08 633.15L1.06 633.11L1.04 633.07L1.03 633.02L1.02 633L1.01 632.98L0.99 632.94L0.97 632.9L0.95 632.86L0.94 632.84L0.94 632.82L0.93 632.8L0.92 632.78L0.91 632.76L0.9 632.74L0.89 632.72L0.88 632.7L0.88 632.68L0.87 632.66L0.86 632.64L0.85 632.62L0.84 632.6L0.83 632.58L0.83 632.56L0.82 632.54L0.81 632.52L0.8 632.49L0.79 632.47L0.78 632.45L0.78 632.43L0.77 632.41L0.76 632.39L0.75 632.37L0.72 632.27L0.69 632.18L0.65 632.09L0.62 631.99L0.59 631.9L0.56 631.81L0.53 631.71L0.5 631.62L0.47 631.52L0.45 631.43L0.42 631.33L0.39 631.24L0.37 631.14L0.34 631.05L0.32 630.95L0.3 630.86L0.27 630.76L0.25 630.67L0.23 630.57L0.21 630.47L0.19 630.38L0.17 630.28L0.16 630.18L0.14 630.09L0.12 629.99L0.11 629.89L0.1 629.8L0.08 629.7L0.07 629.6L0.06 629.5L0.05 629.41L0.04 629.31L0.03 629.21L0.02 629.11L0.02 629.01L0.01 628.92L0.01 628.82L0 628.72L0 628.62L0 628.52L0 628.51L0 628.5L0 628.49L0 628.48L0 628.46L0 628.45L0 628.44L0 628.43L0.01 628.42L0.01 628.41L0.01 628.4L0.01 628.39L0.01 628.37L0.02 628.34L0.02 628.32L0.03 628.28L0.03 628.26L0.03 628.24L0.04 628.21L0.04 628.2L0.04 628.19L0.04 628.18L0.04 628.17L0.04 628.16L0.04 628.15L0.04 628.14L0.05 628.13L0.05 628.11L0.05 628.1L0.05 628.09L0.05 628.08L0.05 628.02L0.05 627.96L0.05 627.91L0.05 627.85L0.06 627.79L0.06 627.73L0.06 627.67L0.06 627.61L0.07 627.55L0.07 627.5L0.07 627.44L0.08 627.38L0.08 627.32L0.08 627.26L0.09 627.2L0.09 627.14L0.1 627.09L0.1 627.03L0.11 626.97L0.11 626.91L0.12 626.85L0.12 626.79L0.13 626.73L0.14 626.68L0.15 626.62L0.15 626.56L0.16 626.5L0.17 626.44L0.18 626.38L0.19 626.32L0.2 626.27L0.21 626.21L0.22 626.15L0.23 626.09L0.24 626.03L0.25 625.97L0.26 625.92L0.27 625.86L0.29 625.8L0.3 625.74L41.25 453.72L41.25 453.71L41.26 453.7L41.26 453.7L41.26 453.69L41.26 453.68L41.27 453.66L41.27 453.65L41.28 453.64L41.29 453.62L41.3 453.6L41.3 453.58L41.31 453.57L41.33 453.51L41.34 453.5L41.35 453.48L41.36 453.46L41.36 453.44L41.37 453.44L41.37 453.42L41.38 453.41L41.38 453.4L41.38 453.39L41.39 453.38L41.39 453.37L41.39 453.35L41.4 453.33L41.41 453.31L41.41 453.29L41.42 453.26L41.43 453.24L41.44 453.22L41.44 453.2L41.45 453.18L41.46 453.15L41.47 453.13L41.48 453.11L41.49 453.09L41.49 453.07L41.5 453.05L41.51 453.03L41.52 453L41.53 452.98L41.54 452.96L41.55 452.94L41.56 452.92L41.58 452.86L41.6 452.81L41.61 452.79L41.62 452.77L41.63 452.75L41.64 452.73L41.65 452.7L41.66 452.68L41.67 452.66L41.67 452.64L41.68 452.62L41.69 452.6L41.7 452.57L41.71 452.55L41.72 452.53L41.72 452.51L41.75 452.43L41.78 452.36L41.81 452.28L41.84 452.21L41.86 452.14L41.89 452.06L41.92 451.99L41.95 451.92L41.98 451.85L42.02 451.77L42.05 451.7L42.08 451.63L42.11 451.56L42.15 451.49L42.18 451.42L42.21 451.35L42.25 451.28L42.28 451.21L42.32 451.14L42.35 451.07L42.39 451L42.43 450.93L42.46 450.86L42.5 450.8L42.54 450.73L42.58 450.66L42.62 450.59L42.66 450.53L42.7 450.46L42.74 450.39L42.78 450.33L42.82 450.26L42.86 450.19L42.91 450.13L42.95 450.06L42.99 450L43.04 449.93L43.08 449.87L43.13 449.8L43.17 449.74L43.19 449.71L43.21 449.69L43.22 449.67L43.25 449.62L43.32 449.53L43.35 449.49L43.37 449.47L43.4 449.42L43.42 449.4L43.43 449.38L43.45 449.36L43.47 449.33L43.48 449.31L43.5 449.29L43.52 449.27L43.53 449.24L43.55 449.22L43.57 449.2L43.58 449.18L43.6 449.16L43.62 449.13L43.63 449.11L43.65 449.09L43.67 449.07L43.68 449.05L43.7 449.03L43.72 449.01L43.74 448.98L43.75 448.96L43.77 448.94L43.79 448.92L43.81 448.9L43.83 448.88L43.84 448.86L43.86 448.84L43.87 448.83L43.88 448.81L43.89 448.79L43.91 448.78L43.92 448.76L43.93 448.74L43.94 448.73L43.95 448.71L43.97 448.7L43.98 448.68L43.99 448.66L44 448.65L44.01 448.63L44.02 448.61L44.03 448.6L44.06 448.56L44.08 448.53L44.09 448.51L44.1 448.5L44.11 448.48L44.12 448.46L44.14 448.45L44.15 448.43L44.16 448.41L44.17 448.4L44.18 448.38L44.2 448.36L44.21 448.35L44.22 448.33L44.23 448.32L44.25 448.3L44.26 448.28L44.27 448.27L44.29 448.25L44.3 448.24L44.32 448.22L44.33 448.21L462.06 30.48L465.16 27.51L468.35 24.69L471.62 22.02L474.97 19.51L478.4 17.14L481.91 14.93L485.48 12.88L489.11 10.97L492.8 9.22L496.54 7.62L500.33 6.17L504.16 4.88L508.03 3.73L511.93 2.74L515.86 1.9L519.82 1.22L523.79 0.69L527.78 0.3L531.78 0.08L535.79 0L539.79 0.08L543.79 0.3ZM32.32 591.29L41.09 582.52L41.43 582.19L41.79 581.88L42.15 581.58L42.52 581.3L42.91 581.04L43.3 580.79L43.69 580.56L44.1 580.35L44.51 580.15L44.92 579.97L45.34 579.81L45.77 579.67L46.2 579.54L46.63 579.43L47.07 579.34L47.51 579.26L47.95 579.2L48.39 579.16L48.83 579.13L49.28 579.12L49.72 579.13L50.17 579.16L50.61 579.2L51.05 579.26L51.49 579.34L51.92 579.43L52.36 579.54L52.79 579.67L53.21 579.81L53.63 579.97L54.05 580.15L54.46 580.35L54.86 580.56L55.26 580.79L55.65 581.04L56.03 581.3L56.4 581.58L56.77 581.88L57.12 582.19L57.47 582.52L57.8 582.87L58.11 583.22L58.41 583.59L58.69 583.96L58.95 584.34L59.19 584.73L59.42 585.13L59.64 585.53L59.83 585.94L60.01 586.36L60.17 586.78L60.31 587.2L60.44 587.63L60.55 588.07L60.64 588.5L60.72 588.94L60.78 589.38L60.82 589.83L60.85 590.27L60.86 590.72L60.85 591.16L60.82 591.6L60.78 592.05L60.72 592.49L60.64 592.93L60.55 593.36L60.44 593.8L60.31 594.23L60.17 594.65L60.01 595.07L59.83 595.49L59.64 595.9L59.42 596.3L59.19 596.7L58.95 597.09L58.69 597.47L58.41 597.84L58.11 598.2L57.8 598.56L57.47 598.9L48.7 607.67L172.98 578.09L178.67 526.86L119.34 533.45L119.3 533.46L119.27 533.46L119.24 533.46L119.21 533.47L119.18 533.47L119.15 533.47L119.12 533.48L119.08 533.48L119.05 533.48L119.02 533.48L118.99 533.49L118.96 533.49L118.93 533.49L118.89 533.49L118.86 533.5L118.83 533.5L118.8 533.5L118.77 533.5L118.74 533.5L118.7 533.51L118.67 533.51L118.64 533.51L118.61 533.51L118.58 533.51L118.55 533.51L118.51 533.51L118.48 533.52L118.45 533.52L118.42 533.52L118.39 533.52L118.36 533.52L118.32 533.52L118.29 533.52L118.26 533.52L118.23 533.52L118.2 533.52L118.17 533.52L118.14 533.52L118.1 533.52L118.07 533.52L117.99 533.52L117.96 533.52L117.93 533.52L117.9 533.52L117.87 533.52L117.83 533.52L117.8 533.52L117.77 533.52L117.74 533.52L117.71 533.52L117.68 533.52L117.64 533.52L117.61 533.52L117.58 533.51L117.55 533.51L117.52 533.51L117.49 533.51L117.45 533.51L117.42 533.51L117.39 533.51L117.36 533.5L117.33 533.5L117.3 533.5L117.26 533.5L117.23 533.5L117.2 533.49L117.17 533.49L117.14 533.49L117.11 533.49L117.08 533.48L117.05 533.48L117.01 533.48L116.98 533.48L116.95 533.47L116.92 533.47L116.89 533.47L116.86 533.46L116.83 533.46L116.8 533.46L116.76 533.45L116.73 533.45L116.7 533.44L116.66 533.44L116.63 533.43L116.6 533.42L116.57 533.42L116.53 533.41L116.5 533.4L116.47 533.39L116.44 533.38L116.41 533.37L116.38 533.36L116.35 533.35L116.32 533.34L116.29 533.33L116.26 533.32L116.22 533.3L116.19 533.29L116.16 533.28L116.13 533.27L116.1 533.26L116.01 533.22L115.98 533.21L115.95 533.19L115.92 533.18L115.89 533.17L115.86 533.16L115.83 533.15L115.8 533.14L115.77 533.12L115.74 533.11L115.71 533.1L115.67 533.09L115.64 533.08L115.61 533.07L115.58 533.06L115.55 533.06L115.51 533.05L115.45 533.03L115.39 533.02L115.33 533L115.26 532.99L115.2 532.97L115.14 532.96L115.08 532.94L115.02 532.93L114.96 532.91L114.89 532.9L114.83 532.88L114.77 532.86L114.71 532.85L114.65 532.83L114.59 532.81L114.53 532.8L114.47 532.78L114.41 532.76L114.35 532.74L114.29 532.73L114.23 532.71L114.17 532.69L114.11 532.67L114.05 532.65L113.99 532.63L113.93 532.61L113.87 532.59L113.81 532.57L113.75 532.55L113.69 532.53L113.64 532.5L113.58 532.48L113.52 532.46L113.46 532.43L113.4 532.41L113.35 532.39L113.29 532.36L113.23 532.34L113.17 532.31L113.11 532.28L113.07 532.26L113.03 532.24L112.99 532.22L112.94 532.2L112.9 532.18L112.86 532.15L112.82 532.13L112.78 532.11L112.74 532.09L112.69 532.06L112.65 532.04L112.61 532.02L112.57 531.99L112.53 531.97L112.49 531.95L112.45 531.92L112.41 531.9L112.37 531.88L112.33 531.85L112.29 531.83L112.25 531.8L112.22 531.78L112.18 531.75L112.14 531.73L112.1 531.7L112.06 531.68L112.02 531.65L111.98 531.63L111.94 531.6L111.9 531.57L111.87 531.55L111.83 531.52L111.79 531.5L111.75 531.47L111.71 531.44L111.67 531.42L111.63 531.39L111.59 531.36L111.56 531.34L111.52 531.31L111.47 531.28L111.42 531.24L111.37 531.21L111.32 531.17L111.27 531.13L111.22 531.1L111.17 531.06L111.13 531.03L111.08 530.99L111.03 530.96L110.98 530.92L110.94 530.88L110.89 530.85L110.84 530.81L110.8 530.77L110.75 530.73L110.71 530.7L110.66 530.66L110.61 530.62L110.57 530.58L110.52 530.54L110.48 530.5L110.43 530.47L110.39 530.43L110.34 530.39L110.3 530.35L110.25 530.31L110.21 530.27L110.17 530.23L110.12 530.18L110.08 530.14L110.04 530.1L109.99 530.06L109.95 530.02L109.91 529.98L109.87 529.93L109.82 529.89L109.78 529.85L109.74 529.8L109.7 529.76L109.66 529.72L109.63 529.69L109.6 529.65L109.57 529.62L109.54 529.58L109.5 529.55L109.47 529.51L109.44 529.48L109.41 529.44L109.38 529.41L109.35 529.37L109.32 529.34L109.29 529.3L109.26 529.27L109.23 529.23L109.2 529.19L109.17 529.16L109.15 529.12L109.12 529.08L109.09 529.05L109.06 529.01L109.03 528.98L109 528.94L108.98 528.9L108.95 528.86L108.92 528.83L108.89 528.79L108.86 528.75L108.84 528.71L108.81 528.68L108.78 528.64L108.76 528.6L108.73 528.56L108.7 528.52L108.67 528.48L108.65 528.44L108.62 528.41L108.59 528.37L108.57 528.33L108.54 528.29L108.51 528.24L108.47 528.19L108.44 528.14L108.41 528.09L108.38 528.04L108.35 527.99L108.32 527.94L108.28 527.89L108.25 527.84L108.22 527.79L108.19 527.74L108.16 527.68L108.14 527.63L108.11 527.58L108.08 527.53L108.05 527.48L108.02 527.43L107.99 527.38L107.96 527.33L107.94 527.27L107.91 527.22L107.88 527.17L107.86 527.12L107.83 527.06L107.8 527.01L107.78 526.96L107.75 526.9L107.73 526.85L107.7 526.8L107.68 526.74L107.65 526.69L107.63 526.63L107.6 526.58L107.58 526.52L107.55 526.47L107.53 526.41L107.51 526.36L107.48 526.3L107.46 526.25L107.44 526.19L107.42 526.14L107.4 526.1L107.38 526.05L107.37 526L107.35 525.96L107.33 525.91L107.32 525.86L107.3 525.82L107.28 525.77L107.27 525.72L107.25 525.68L107.23 525.63L107.22 525.58L107.2 525.53L107.19 525.49L107.17 525.44L107.15 525.39L107.14 525.35L107.12 525.3L107.11 525.25L107.1 525.2L107.08 525.16L107.07 525.11L107.05 525.06L107.04 525.01L107.03 524.97L107.01 524.92L107 524.87L106.99 524.82L106.97 524.77L106.96 524.72L106.95 524.68L106.94 524.63L106.93 524.58L106.91 524.53L106.9 524.48L106.89 524.43L106.88 524.38L106.87 524.33L106.86 524.28L106.85 524.25L106.85 524.22L106.84 524.2L106.83 524.17L106.82 524.14L106.82 524.12L106.81 524.09L106.8 524.06L106.79 524.04L106.78 524.01L106.77 523.98L106.76 523.96L106.75 523.93L106.74 523.91L106.73 523.88L106.72 523.85L106.71 523.83L106.69 523.78L106.68 523.75L106.67 523.72L106.67 523.7L106.66 523.67L106.65 523.65L106.64 523.62L106.63 523.59L106.62 523.57L106.61 523.54L106.6 523.52L106.59 523.49L106.59 523.46L106.58 523.44L106.57 523.41L106.57 523.38L106.56 523.35L106.55 523.33L106.55 523.3L106.54 523.27L106.54 523.24L106.54 523.21L106.53 523.18L106.53 523.15L106.53 523.11L106.53 523.08L106.53 523.05L106.53 523.02L106.53 522.99L106.53 522.95L106.53 522.92L106.53 522.89L106.54 522.86L106.54 522.83L106.54 522.8L106.55 522.76L106.55 522.73L106.56 522.7L106.56 522.67L106.57 522.64L106.57 522.61L106.58 522.58L106.58 522.54L106.59 522.51L106.59 522.48L106.6 522.45L106.6 522.42L106.61 522.39L106.61 522.36L106.62 522.32L106.62 522.29L106.63 522.26L106.63 522.23L106.63 522.2L106.64 522.17L106.64 522.13L106.64 522.1L106.65 522.07L106.65 522.04L106.65 522L106.65 521.97L106.65 521.94L106.65 521.91L106.65 521.87L106.65 521.84L106.65 521.81L106.64 521.78L106.64 521.75L106.64 521.72L106.63 521.68L106.63 521.65L106.63 521.62L106.62 521.59L106.62 521.56L106.61 521.53L106.61 521.49L106.6 521.46L106.6 521.43L106.59 521.4L106.59 521.37L106.58 521.34L106.58 521.31L106.57 521.27L106.57 521.24L106.56 521.21L106.56 521.18L106.55 521.15L106.55 521.12L106.54 521.08L106.54 521.05L106.54 521.02L106.53 520.99L106.53 520.96L106.53 520.93L106.53 520.89L106.53 520.86L106.53 520.83L106.53 520.8L106.53 520.76L106.53 520.73L106.53 520.7L106.54 520.66L113.13 461.33L61.9 467.02L32.32 591.29ZM120.93 437.15L380.18 177.93L380.52 177.59L380.88 177.28L381.24 176.98L381.61 176.7L382 176.44L382.39 176.19L382.78 175.96L383.19 175.75L383.59 175.56L384.01 175.38L384.43 175.22L384.86 175.07L385.29 174.94L385.72 174.83L386.16 174.74L386.6 174.66L387.04 174.61L387.48 174.56L387.92 174.54L388.37 174.53L388.81 174.54L389.26 174.56L389.7 174.61L390.14 174.66L390.58 174.74L391.01 174.83L391.45 174.94L391.88 175.07L392.3 175.22L392.72 175.38L393.14 175.56L393.55 175.75L393.95 175.96L394.35 176.19L394.74 176.44L395.12 176.7L395.49 176.98L395.86 177.28L396.21 177.59L396.56 177.93L396.89 178.27L397.2 178.63L397.5 178.99L397.78 179.36L398.04 179.74L398.29 180.13L398.52 180.53L398.73 180.93L398.93 181.34L399.1 181.76L399.27 182.18L399.41 182.61L399.54 183.03L399.65 183.47L399.74 183.9L399.82 184.34L399.88 184.78L399.92 185.23L399.95 185.67L399.95 186.12L399.95 186.56L399.92 187L399.88 187.45L399.82 187.89L399.74 188.33L399.65 188.76L399.54 189.2L399.41 189.63L399.27 190.05L399.1 190.47L398.93 190.89L398.73 191.3L398.52 191.7L398.29 192.1L398.04 192.49L397.78 192.87L397.5 193.24L397.2 193.61L396.89 193.96L396.56 194.31L137.31 453.53L131.17 508.81L186.46 502.68L445.68 243.44L446.03 243.11L446.38 242.8L446.75 242.5L447.12 242.22L447.5 241.96L447.89 241.71L448.29 241.48L448.69 241.27L449.1 241.07L449.52 240.9L449.94 240.73L450.36 240.59L450.79 240.46L451.23 240.35L451.66 240.26L452.1 240.18L452.54 240.12L452.98 240.08L453.43 240.05L453.87 240.05L454.32 240.05L454.76 240.08L455.2 240.12L455.64 240.18L456.08 240.26L456.52 240.35L456.95 240.46L457.38 240.59L457.81 240.73L458.23 240.9L458.65 241.07L459.05 241.27L459.46 241.48L459.85 241.71L460.24 241.96L460.63 242.22L461 242.5L461.36 242.8L461.72 243.11L462.06 243.44L462.39 243.79L462.71 244.14L463.01 244.51L463.29 244.88L463.55 245.26L463.8 245.65L464.02 246.05L464.24 246.45L464.43 246.86L464.61 247.28L464.77 247.7L464.92 248.12L465.04 248.55L465.15 248.99L465.25 249.42L465.32 249.86L465.38 250.3L465.43 250.74L465.45 251.19L465.46 251.63L465.45 252.08L465.43 252.52L465.38 252.96L465.32 253.4L465.25 253.84L465.15 254.28L465.04 254.71L464.92 255.14L464.77 255.57L464.61 255.99L464.43 256.41L464.24 256.81L464.02 257.22L463.8 257.61L463.55 258L463.29 258.39L463.01 258.76L462.71 259.12L462.39 259.48L462.06 259.82L202.84 519.05L198.74 555.93L519.41 235.25L404.73 120.57L84.06 441.25L120.93 437.15ZM535.79 218.87L552.17 202.49L437.49 87.82L421.11 104.2L535.79 218.87ZM568.55 186.12L584.94 169.72L470.26 55.05L453.87 71.44L568.55 186.12ZM529.96 23.42L527.13 23.67L524.31 24.03L521.5 24.48L518.71 25.03L515.93 25.68L513.17 26.43L510.44 27.28L507.72 28.22L505.04 29.27L502.39 30.41L499.77 31.65L497.19 32.99L494.65 34.43L492.15 35.96L489.7 37.59L487.29 39.33L600.66 152.7L602.39 150.29L604.03 147.84L605.56 145.34L607 142.8L608.34 140.22L609.58 137.6L610.72 134.95L611.76 132.27L612.71 129.56L613.56 126.82L614.3 124.07L614.95 121.29L615.51 118.49L615.96 115.68L616.31 112.86L616.57 110.03L616.73 107.2L616.79 104.36L616.75 101.52L616.61 98.69L616.37 95.86L616.04 93.03L615.6 90.22L615.07 87.43L614.44 84.65L613.71 81.89L612.88 79.15L611.96 76.43L610.93 73.75L609.81 71.09L608.58 68.47L607.26 65.89L605.84 63.34L604.32 60.84L602.7 58.38L600.99 55.97L599.17 53.61L597.26 51.3L595.24 49.05L593.13 46.86L590.94 44.74L588.69 42.73L586.38 40.82L584.02 39L581.61 37.28L579.15 35.67L576.65 34.15L574.11 32.73L571.52 31.4L568.9 30.18L566.25 29.06L563.56 28.03L560.85 27.11L558.11 26.28L555.35 25.55L552.57 24.92L549.77 24.38L546.96 23.95L544.14 23.62L541.31 23.38L538.48 23.24L535.64 23.2L532.8 23.26L529.96 23.42Z" id="d3FQ4oaHBs"></path></defs><g><g><g><use xlink:href="#d3FQ4oaHBs" opacity="1" fill="#606060" fill-opacity="1"></use><g><use xlink:href="#d3FQ4oaHBs" opacity="1" fill-opacity="0" stroke="#000000" stroke-width="1" stroke-opacity="0"></use></g></g></g></g></svg>