<?xml version="1.0" encoding="UTF-8" standalone="no"?>
<!DOCTYPE svg PUBLIC "-//W3C//DTD SVG 1.1//EN" "http://www.w3.org/Graphics/SVG/1.1/DTD/svg11.dtd">
<svg version="1.1" xmlns="http://www.w3.org/2000/svg" xmlns:xlink="http://www.w3.org/1999/xlink" preserveAspectRatio="xMidYMid meet" viewBox="0 0 640 640" width="640" height="640"><defs><path d="M629.46 106.93L629.52 106.93L629.58 106.93L629.64 106.93L629.7 106.93L629.76 106.93L629.82 106.94L629.88 106.94L629.94 106.94L630 106.95L630.06 106.95L630.12 106.95L630.18 106.96L630.24 106.96L630.29 106.97L630.35 106.97L630.41 106.98L630.47 106.99L630.53 106.99L630.59 107L630.65 107.01L630.71 107.01L630.76 107.02L630.82 107.03L630.88 107.04L630.94 107.05L631 107.06L631.06 107.07L631.11 107.08L631.17 107.09L631.23 107.1L631.29 107.11L631.35 107.12L631.41 107.13L631.46 107.14L631.53 107.15L631.59 107.16L631.62 107.17L631.68 107.18L631.74 107.19L631.77 107.2L631.8 107.2L631.83 107.21L631.86 107.21L631.89 107.22L631.92 107.23L631.95 107.23L631.98 107.24L632.01 107.24L632.04 107.25L632.07 107.26L632.1 107.26L632.13 107.27L632.15 107.27L632.18 107.28L632.21 107.29L632.24 107.3L632.27 107.3L632.3 107.31L632.33 107.32L632.36 107.32L632.39 107.33L632.42 107.34L632.45 107.35L632.48 107.36L632.51 107.36L632.54 107.37L632.57 107.38L632.6 107.39L632.63 107.4L632.66 107.41L632.73 107.43L632.79 107.45L632.86 107.48L632.92 107.5L632.99 107.52L633.06 107.55L633.12 107.57L633.19 107.6L633.25 107.62L633.32 107.65L633.38 107.68L633.45 107.7L633.51 107.73L633.58 107.76L633.64 107.79L633.7 107.82L633.77 107.85L633.83 107.88L633.89 107.91L633.96 107.94L634.02 107.97L634.08 108L634.14 108.03L634.2 108.07L634.27 108.1L634.33 108.13L634.39 108.17L634.45 108.2L634.51 108.24L634.57 108.27L634.63 108.31L634.69 108.34L634.75 108.38L634.82 108.42L634.88 108.45L634.94 108.49L634.99 108.53L635.05 108.57L635.11 108.61L635.17 108.65L635.19 108.66L635.21 108.67L635.22 108.68L635.24 108.69L635.25 108.69L635.27 108.7L635.29 108.71L635.3 108.72L635.32 108.73L635.34 108.74L635.35 108.75L635.37 108.76L635.39 108.77L635.4 108.78L635.44 108.79L635.49 108.82L635.52 108.84L635.54 108.84L635.55 108.85L635.57 108.86L635.58 108.87L635.6 108.88L635.62 108.89L635.63 108.9L635.65 108.91L635.67 108.92L635.68 108.93L635.7 108.94L635.71 108.94L635.73 108.95L635.75 108.96L635.76 108.98L635.78 108.99L635.79 109L635.81 109.01L635.82 109.02L635.89 109.07L635.96 109.12L636.02 109.17L636.09 109.23L636.15 109.28L636.22 109.33L636.28 109.39L636.35 109.44L636.41 109.5L636.48 109.55L636.54 109.61L636.6 109.66L636.66 109.72L636.73 109.78L636.79 109.84L636.85 109.9L636.91 109.96L636.97 110.01L637.03 110.07L637.09 110.14L637.15 110.2L637.21 110.26L637.26 110.32L637.32 110.38L637.38 110.45L637.44 110.51L637.49 110.58L637.55 110.64L637.6 110.71L637.66 110.77L637.71 110.84L637.77 110.91L637.82 110.98L637.87 111.04L637.92 111.11L637.98 111.18L638.03 111.25L638.08 111.32L638.13 111.4L638.18 111.47L638.18 111.48L638.19 111.48L638.19 111.49L638.2 111.5L638.21 111.51L638.22 111.53L638.23 111.54L638.24 111.56L638.24 111.57L638.25 111.58L638.25 111.59L638.26 111.6L638.27 111.62L638.28 111.64L638.31 111.69L638.33 111.71L638.34 111.74L638.35 111.75L638.35 111.76L638.36 111.78L638.37 111.79L638.38 111.8L638.39 111.81L638.39 111.82L638.39 111.82L638.39 111.83L638.39 111.83L638.4 111.84L638.4 111.84L638.4 111.84L638.41 111.85L638.41 111.85L638.42 111.86L638.43 111.87L638.44 111.87L638.44 111.88L638.44 111.88L638.44 111.88L638.45 111.89L638.45 111.9L638.45 111.92L638.46 111.93L638.46 111.94L638.46 111.95L638.47 111.96L638.47 111.96L638.47 111.96L638.47 111.97L638.48 111.97L638.48 111.98L638.49 112L638.5 112.01L638.51 112.02L638.51 112.03L638.52 112.05L638.53 112.06L638.54 112.07L638.54 112.08L638.56 112.11L638.57 112.12L638.57 112.13L638.58 112.15L638.61 112.18L638.63 112.22L638.64 112.24L638.66 112.27L638.67 112.28L638.68 112.29L638.68 112.31L638.69 112.32L638.7 112.33L638.71 112.34L638.71 112.36L638.72 112.37L638.73 112.38L638.73 112.39L638.74 112.41L638.75 112.42L638.75 112.43L638.76 112.44L638.77 112.46L638.77 112.47L638.81 112.54L638.85 112.62L638.89 112.69L638.93 112.77L638.96 112.84L639 112.92L639.03 112.99L639.07 113.07L639.1 113.15L639.13 113.22L639.17 113.3L639.2 113.37L639.23 113.45L639.26 113.53L639.29 113.6L639.32 113.68L639.35 113.76L639.38 113.83L639.4 113.91L639.43 113.99L639.46 114.06L639.48 114.14L639.51 114.22L639.53 114.3L639.56 114.37L639.58 114.45L639.6 114.53L639.62 114.61L639.65 114.68L639.67 114.76L639.69 114.84L639.71 114.92L639.72 115L639.74 115.08L639.76 115.16L639.78 115.23L639.79 115.31L639.81 115.39L639.83 115.47L639.84 115.55L639.84 115.57L639.84 115.58L639.85 115.6L639.85 115.61L639.85 115.63L639.85 115.64L639.85 115.66L639.85 115.67L639.85 115.69L639.85 115.7L639.85 115.71L639.85 115.73L639.86 115.74L639.86 115.76L639.86 115.77L639.86 115.8L639.86 115.82L639.85 115.85L639.85 115.89L639.85 115.91L639.85 115.94L639.85 115.95L639.85 115.98L639.85 116L639.85 116.01L639.85 116.03L639.85 116.04L639.86 116.06L639.86 116.07L639.86 116.09L639.86 116.1L639.86 116.12L639.86 116.13L639.86 116.15L639.87 116.21L639.88 116.27L639.88 116.33L639.89 116.39L639.9 116.45L639.9 116.51L639.91 116.57L639.92 116.63L639.92 116.69L639.93 116.75L639.94 116.81L639.94 116.87L639.95 116.93L639.95 116.99L639.96 117.05L639.96 117.1L639.97 117.16L639.97 117.22L639.97 117.28L639.98 117.34L639.98 117.4L639.99 117.46L639.99 117.52L639.99 117.58L639.99 117.64L639.99 117.7L640 117.76L640 117.82L640 117.88L640 117.94L640 118L639.99 118.06L639.99 118.12L639.99 118.18L639.99 118.24L639.99 118.3L639.98 118.36L639.98 118.42L639.97 118.47L639.97 118.53L639.97 118.55L639.96 118.57L639.96 118.59L639.96 118.61L639.96 118.63L639.96 118.65L639.95 118.67L639.95 118.69L639.95 118.71L639.94 118.73L639.94 118.74L639.94 118.76L639.93 118.78L639.93 118.8L639.93 118.82L639.92 118.84L639.92 118.86L639.91 118.88L639.91 118.9L639.9 118.94L639.9 118.96L639.89 118.99L639.88 119.03L639.87 119.07L639.87 119.09L639.86 119.13L639.86 119.15L639.85 119.17L639.85 119.19L639.85 119.2L639.84 119.22L639.84 119.24L639.84 119.26L639.83 119.28L639.83 119.3L639.82 119.36L639.81 119.4L639.81 119.43L639.8 119.45L639.8 119.47L639.79 119.5L639.79 119.53L639.79 119.55L639.78 119.56L639.78 119.57L639.78 119.59L639.77 119.6L639.77 119.61L639.77 119.63L639.76 119.64L639.76 119.65L639.76 119.66L639.75 119.67L639.75 119.68L639.75 119.7L639.75 119.71L639.75 119.72L639.74 119.74L639.74 119.76L639.74 119.78L639.73 119.8L639.73 119.81L639.73 119.83L639.72 119.89L639.71 119.93L639.71 119.95L639.7 119.98L639.7 120L639.7 120.01L639.7 120.02L639.69 120.03L639.69 120.05L639.69 120.06L639.69 120.07L639.68 120.08L639.68 120.09L639.68 120.11L639.68 120.12L639.67 120.13L639.67 120.14L639.66 120.17L639.66 120.2L639.65 120.23L639.64 120.26L639.63 120.29L639.63 120.31L639.62 120.34L639.61 120.37L639.6 120.4L639.59 120.43L639.59 120.46L639.58 120.48L639.57 120.51L639.56 120.54L639.55 120.57L639.54 120.6L639.54 120.63L639.53 120.65L639.52 120.68L639.51 120.71L639.5 120.74L639.49 120.77L639.48 120.79L639.47 120.82L639.46 120.85L639.46 120.88L639.45 120.9L639.44 120.93L639.43 120.96L639.42 120.99L639.41 121.02L639.4 121.04L639.39 121.07L639.38 121.1L639.37 121.13L639.36 121.15L639.35 121.18L639.34 121.21L639.33 121.23L639.32 121.26L490.18 526.06L490.1 526.29L490 526.51L489.91 526.73L489.81 526.95L489.7 527.17L489.59 527.38L489.48 527.59L489.36 527.8L489.23 528.01L489.1 528.21L488.97 528.4L488.83 528.6L488.69 528.79L488.55 528.98L488.4 529.16L488.25 529.35L488.09 529.52L487.93 529.7L487.76 529.87L487.59 530.04L487.42 530.2L487.25 530.36L487.07 530.51L486.88 530.67L486.7 530.81L486.51 530.96L486.31 531.09L486.12 531.23L485.92 531.36L485.72 531.49L485.51 531.61L485.3 531.73L485.09 531.84L484.88 531.95L484.66 532.05L484.44 532.15L484.22 532.24L484 532.33L483.77 532.42L483.54 532.5L483.46 532.52L483.38 532.55L483.3 532.57L483.21 532.6L483.13 532.62L483.05 532.65L482.96 532.67L482.88 532.69L482.8 532.71L482.71 532.73L482.63 532.75L482.55 532.77L482.46 532.79L482.38 532.81L482.29 532.83L482.21 532.84L482.13 532.86L482.04 532.87L481.96 532.89L481.87 532.9L481.79 532.92L481.7 532.93L481.62 532.94L481.54 532.95L481.45 532.96L481.37 532.97L481.28 532.98L481.2 532.99L481.11 533L481.03 533L480.94 533.01L480.86 533.02L480.78 533.02L480.69 533.03L480.61 533.03L480.52 533.03L480.44 533.04L480.35 533.04L480.27 533.04L480.19 533.04L480.03 533.04L479.88 533.03L479.73 533.03L479.58 533.02L479.42 533.01L479.27 533L479.12 532.98L478.97 532.97L478.82 532.95L478.67 532.93L478.52 532.91L478.36 532.88L478.21 532.85L478.06 532.82L477.92 532.79L477.77 532.76L477.62 532.72L477.47 532.69L477.32 532.65L477.17 532.6L477.03 532.56L476.88 532.51L476.74 532.47L476.59 532.41L476.45 532.36L476.3 532.31L476.16 532.25L476.02 532.19L475.88 532.13L475.74 532.07L475.6 532L475.46 531.94L475.32 531.87L475.18 531.79L475.05 531.72L474.91 531.65L474.78 531.57L474.64 531.49L474.51 531.41L474.38 531.32L350.77 450.98L232.72 529.68L232.57 529.83L232.42 529.98L232.26 530.13L232.11 530.27L231.95 530.41L231.79 530.55L231.62 530.68L231.46 530.81L231.29 530.94L231.12 531.07L230.94 531.19L230.77 531.3L230.59 531.42L230.41 531.53L230.23 531.64L230.05 531.74L229.86 531.84L229.67 531.94L229.49 532.03L229.29 532.12L229.1 532.21L228.91 532.29L228.71 532.37L228.51 532.44L228.31 532.51L228.11 532.58L227.91 532.64L227.7 532.7L227.49 532.75L227.29 532.8L227.08 532.84L226.87 532.88L226.65 532.92L226.44 532.95L226.23 532.98L226.01 533L225.79 533.02L225.57 533.03L225.35 533.04L225.13 533.04L225.11 533.04L225.08 533.04L225.05 533.04L225.02 533.04L225.01 533.04L224.98 533.04L224.96 533.04L224.94 533.04L224.92 533.03L224.9 533.03L224.87 533.03L224.85 533.03L224.82 533.03L224.78 533.03L224.74 533.03L224.7 533.02L224.64 533.02L224.59 533.02L224.58 533.02L224.58 533.02L224.57 533.02L224.56 533.02L224.55 533.02L224.55 533.02L224.54 533.02L224.52 533.03L224.51 533.03L224.5 533.03L224.48 533.04L224.47 533.04L224.47 533.04L224.46 533.04L224.35 533.04L224.28 533.04L224.2 533.04L224.13 533.03L224.05 533.03L223.98 533.03L223.9 533.02L223.83 533.02L223.76 533.01L223.68 533L223.61 533L223.53 532.99L223.46 532.98L223.38 532.97L223.31 532.96L223.23 532.95L223.16 532.94L223.09 532.93L223.01 532.92L222.94 532.91L222.86 532.9L222.79 532.88L222.72 532.87L222.64 532.85L222.57 532.84L222.5 532.82L222.42 532.81L222.35 532.79L222.28 532.78L222.2 532.76L222.13 532.74L222.06 532.72L221.98 532.71L221.91 532.69L221.84 532.67L221.77 532.65L221.69 532.63L221.62 532.61L221.55 532.59L221.48 532.57L221.46 532.56L221.43 532.56L221.41 532.55L221.39 532.54L221.37 532.54L221.35 532.53L221.32 532.52L221.3 532.51L221.28 532.51L221.26 532.5L221.24 532.49L221.22 532.48L221.2 532.48L221.17 532.47L221.15 532.46L221.13 532.45L221.11 532.44L221.09 532.43L221.07 532.43L221.05 532.42L221.03 532.41L221.01 532.4L220.96 532.38L220.9 532.36L220.86 532.34L220.82 532.32L220.8 532.32L220.77 532.31L220.75 532.3L220.73 532.29L220.71 532.28L220.69 532.27L220.67 532.27L220.65 532.26L220.63 532.25L220.57 532.23L220.52 532.21L220.47 532.19L220.41 532.16L220.36 532.14L220.31 532.12L220.25 532.1L220.2 532.07L220.15 532.05L220.1 532.03L220.05 532L219.99 531.98L219.94 531.96L219.89 531.93L219.84 531.91L219.79 531.88L219.74 531.86L219.69 531.83L219.63 531.8L219.58 531.78L219.53 531.75L219.48 531.73L219.43 531.7L219.38 531.67L219.33 531.64L219.28 531.62L219.23 531.59L219.18 531.56L219.13 531.53L219.08 531.5L219.03 531.47L218.98 531.44L218.93 531.41L218.88 531.38L218.83 531.35L218.79 531.32L218.74 531.29L218.69 531.26L218.64 531.23L218.59 531.2L218.58 531.19L218.57 531.18L218.55 531.17L218.54 531.17L218.53 531.16L218.52 531.15L218.5 531.15L218.49 531.14L218.48 531.13L218.47 531.13L218.45 531.12L218.44 531.12L218.43 531.11L218.42 531.1L218.4 531.1L218.38 531.09L218.34 531.07L218.31 531.06L218.29 531.05L218.28 531.04L218.26 531.04L218.25 531.03L218.24 531.03L218.23 531.02L218.21 531.01L218.2 531.01L218.19 531L218.17 530.99L218.16 530.99L218.15 530.98L218.14 530.97L218.13 530.96L218.11 530.96L218.1 530.95L218.08 530.93L218.07 530.93L218.07 530.92L218.06 530.92L218.05 530.91L218.04 530.9L218.04 530.9L218.03 530.89L218.02 530.88L218.02 530.88L218.01 530.87L218 530.86L218 530.86L217.98 530.84L217.98 530.83L217.97 530.83L217.96 530.82L217.96 530.81L217.93 530.78L217.92 530.77L217.91 530.76L217.9 530.74L217.89 530.74L217.88 530.73L217.88 530.72L217.87 530.72L217.86 530.71L217.86 530.7L217.85 530.7L217.84 530.69L217.84 530.68L217.83 530.68L217.82 530.67L217.78 530.64L217.73 530.6L217.69 530.56L217.65 530.53L217.6 530.49L217.56 530.45L217.52 530.41L217.47 530.38L217.43 530.34L217.39 530.3L217.35 530.26L217.3 530.22L217.26 530.18L217.22 530.14L217.18 530.1L217.14 530.06L217.1 530.02L217.06 529.98L217.02 529.94L216.98 529.89L216.94 529.85L216.9 529.81L216.86 529.77L216.82 529.72L216.78 529.68L216.74 529.64L216.7 529.6L216.66 529.55L216.62 529.51L216.58 529.46L216.55 529.42L216.51 529.37L216.47 529.33L216.43 529.29L216.39 529.24L216.35 529.19L216.32 529.15L216.28 529.1L216.24 529.06L216.2 529.01L216.19 529L216.18 528.98L216.17 528.97L216.15 528.95L216.14 528.94L216.13 528.92L216.12 528.91L216.1 528.89L216.09 528.88L216.08 528.87L216.07 528.85L216.05 528.84L216.04 528.82L216.03 528.81L216 528.78L215.96 528.74L215.94 528.71L215.92 528.7L215.91 528.69L215.9 528.67L215.89 528.66L215.87 528.65L215.86 528.63L215.85 528.62L215.84 528.61L215.83 528.59L215.81 528.58L215.8 528.56L215.79 528.55L215.78 528.53L215.77 528.52L215.76 528.51L215.75 528.49L215.73 528.48L215.72 528.46L215.71 528.45L215.7 528.44L215.69 528.43L215.67 528.41L215.66 528.4L215.66 528.39L215.65 528.38L215.64 528.38L215.64 528.37L215.63 528.36L215.62 528.36L215.61 528.35L215.61 528.34L215.61 528.34L215.6 528.33L215.59 528.32L215.59 528.32L215.59 528.31L215.58 528.29L215.57 528.28L215.56 528.27L215.55 528.26L215.55 528.24L215.54 528.23L215.53 528.22L215.53 528.2L215.52 528.19L215.52 528.17L215.51 528.16L215.51 528.15L215.5 528.13L215.5 528.12L215.49 528.11L215.49 528.09L215.48 528.08L215.48 528.06L215.47 528.05L215.46 527.99L215.45 527.98L215.45 527.97L215.44 527.95L215.44 527.94L215.43 527.92L215.43 527.91L215.42 527.9L215.42 527.88L215.41 527.87L215.41 527.86L215.4 527.84L215.4 527.83L215.39 527.82L215.38 527.8L215.38 527.79L215.37 527.78L215.36 527.76L215.32 527.7L215.28 527.63L215.24 527.56L215.21 527.49L215.17 527.43L215.13 527.36L215.09 527.29L215.06 527.22L215.02 527.15L214.99 527.08L214.95 527.01L214.92 526.94L214.89 526.87L214.85 526.8L214.82 526.73L214.79 526.66L214.76 526.59L214.73 526.52L214.7 526.45L214.67 526.38L214.64 526.31L214.61 526.24L214.58 526.17L214.55 526.09L214.53 526.02L214.5 525.95L214.48 525.88L214.45 525.8L214.43 525.73L214.4 525.66L214.38 525.58L214.35 525.51L214.33 525.43L214.31 525.36L214.29 525.28L214.27 525.21L214.25 525.13L214.23 525.06L214.21 524.98L214.19 524.91L214.18 524.88L214.17 524.85L214.17 524.81L214.16 524.78L214.15 524.75L214.14 524.72L214.14 524.69L214.13 524.66L214.12 524.63L214.12 524.6L214.11 524.57L214.11 524.54L214.1 524.51L214.09 524.47L214.09 524.44L214.08 524.41L214.08 524.38L214.07 524.35L214.07 524.32L214.06 524.29L214.06 524.26L214.05 524.23L214.05 524.2L214.04 524.16L214.04 524.13L214.03 524.1L214.03 524.07L214.03 524.04L214.02 524.01L214.02 523.98L214.01 523.95L214.01 523.91L214 523.88L214 523.85L214 523.82L213.99 523.79L213.98 523.73L213.98 523.66L213.97 523.6L213.96 523.54L213.95 523.47L213.95 523.41L213.94 523.35L213.94 523.28L213.93 523.22L213.93 523.16L213.92 523.09L213.92 523.03L213.91 522.97L213.91 522.91L213.91 522.84L213.91 522.78L213.9 522.72L213.9 522.65L213.9 522.59L213.9 522.53L213.9 522.47L213.9 522.4L213.9 522.34L213.9 522.28L213.9 522.21L213.91 522.15L213.91 522.09L213.91 522.02L213.91 521.96L213.92 521.9L213.92 521.84L213.93 521.77L213.93 521.71L213.93 521.65L213.94 521.58L213.95 521.52L213.95 521.45L213.96 521.39L213.96 521.33L213.97 521.26L213.98 521.2L213.99 521.14L213.99 521.13L213.99 521.12L213.99 521.11L213.99 521.1L213.99 521.09L213.99 521.07L213.99 521.06L213.99 521.05L213.99 521.03L213.99 521.01L213.99 521L213.99 520.98L213.98 520.94L213.98 520.93L213.98 520.91L213.98 520.89L213.98 520.88L213.98 520.87L213.98 520.85L213.98 520.84L213.98 520.83L213.98 520.82L213.98 520.81L213.98 520.8L213.98 520.79L213.98 520.78L213.98 520.77L213.98 520.76L213.99 520.75L213.99 520.74L182.9 348.26L5.68 254.78L5.38 254.62L5.1 254.45L4.82 254.27L4.54 254.08L4.27 253.89L4.01 253.69L3.76 253.48L3.51 253.26L3.27 253.04L3.04 252.81L2.82 252.58L2.6 252.33L2.4 252.09L2.2 251.83L2 251.57L1.82 251.31L1.64 251.04L1.48 250.76L1.32 250.48L1.17 250.2L1.02 249.91L0.89 249.62L0.77 249.32L0.65 249.02L0.55 248.71L0.45 248.41L0.36 248.1L0.28 247.78L0.21 247.46L0.15 247.15L0.1 246.82L0.06 246.5L0.03 246.17L0.01 245.85L0 245.52L0 245.19L0.01 244.85L0.03 244.52L0.06 244.19L0.11 243.85L0.16 243.52L0.22 243.19L0.29 242.87L0.38 242.55L0.47 242.23L0.57 241.92L0.68 241.61L0.8 241.3L0.93 241L1.06 240.71L1.21 240.42L1.37 240.13L1.53 239.85L1.7 239.58L1.88 239.31L2.07 239.05L2.26 238.79L2.46 238.54L2.67 238.3L2.89 238.06L3.11 237.83L3.35 237.6L3.58 237.38L3.83 237.17L4.08 236.97L4.34 236.78L4.6 236.59L4.87 236.41L5.14 236.24L5.42 236.07L5.71 235.92L6 235.77L6.3 235.63L6.6 235.5L6.9 235.38L7.22 235.27L7.53 235.16L7.85 235.07L8.18 234.99L8.5 234.91L627.02 107.09L627.04 107.08L627.06 107.08L627.08 107.08L627.1 107.07L627.12 107.07L627.15 107.07L627.17 107.06L627.19 107.06L627.21 107.06L627.23 107.06L627.25 107.06L627.27 107.06L627.29 107.05L627.31 107.05L627.33 107.05L627.35 107.05L627.37 107.05L627.39 107.05L627.41 107.05L627.43 107.05L627.45 107.05L627.51 107.05L627.53 107.05L627.55 107.05L627.57 107.05L627.59 107.05L627.62 107.05L627.64 107.04L627.66 107.04L627.68 107.04L627.7 107.04L627.72 107.04L627.74 107.04L627.76 107.04L627.78 107.03L627.8 107.03L627.82 107.03L627.87 107.02L627.91 107.02L627.94 107.01L627.97 107.01L628 107L628.03 107L628.06 107L628.1 106.99L628.13 106.99L628.16 106.98L628.19 106.98L628.22 106.98L628.25 106.98L628.28 106.97L628.31 106.97L628.35 106.97L628.38 106.96L628.41 106.96L628.44 106.96L628.47 106.96L628.5 106.96L628.53 106.95L628.56 106.95L628.6 106.95L628.63 106.95L628.66 106.95L628.69 106.94L628.72 106.94L628.75 106.94L628.78 106.94L628.81 106.94L628.85 106.94L628.88 106.94L628.91 106.94L628.94 106.93L628.97 106.93L629 106.93L629.04 106.93L629.07 106.93L629.1 106.93L629.16 106.93L629.22 106.93L629.28 106.93L629.34 106.93L629.4 106.93L629.46 106.93ZM310.65 399.5L474.81 506.19L607.11 147.08L285.8 383.34L310.65 399.5ZM287.36 467.64L331.31 438.35L318.37 429.95L273.15 400.55L244.1 496.49L287.36 467.64ZM227.58 475.99L256.89 380.76L256.89 380.76L256.89 380.75L256.89 380.75L256.89 380.74L256.89 380.74L256.9 380.73L256.9 380.72L256.91 380.72L256.91 380.71L256.92 380.7L256.93 380.69L256.93 380.69L256.94 380.68L256.94 380.67L256.94 380.67L256.95 380.66L256.95 380.66L256.95 380.66L256.95 380.65L256.95 380.64L256.96 380.63L256.96 380.62L256.96 380.61L256.97 380.6L256.97 380.59L256.98 380.58L256.98 380.57L256.98 380.56L256.99 380.55L256.99 380.54L257 380.53L257 380.52L257.01 380.52L257.02 380.5L257.02 380.49L257.03 380.48L257.04 380.46L257.06 380.42L257.07 380.4L257.08 380.39L257.08 380.38L257.09 380.37L257.09 380.36L257.1 380.34L257.11 380.33L257.11 380.32L257.11 380.31L257.12 380.3L257.12 380.29L257.13 380.28L257.13 380.27L257.15 380.22L257.17 380.16L257.19 380.11L257.21 380.06L257.23 380.01L257.25 379.95L257.27 379.9L257.29 379.85L257.32 379.8L257.34 379.75L257.36 379.7L257.38 379.65L257.4 379.6L257.43 379.54L257.45 379.49L257.47 379.44L257.5 379.39L257.52 379.34L257.55 379.29L257.57 379.24L257.59 379.19L257.62 379.14L257.64 379.09L257.67 379.04L257.7 378.99L257.72 378.95L257.75 378.9L257.77 378.85L257.8 378.8L257.83 378.75L257.86 378.7L257.88 378.65L257.91 378.6L257.94 378.55L257.97 378.51L258 378.46L258.02 378.41L258.05 378.36L258.08 378.31L258.11 378.27L258.12 378.25L258.14 378.23L258.15 378.21L258.16 378.19L258.18 378.17L258.19 378.15L258.2 378.13L258.21 378.11L258.24 378.07L258.3 377.97L258.32 377.93L258.33 377.91L258.36 377.87L258.37 377.85L258.38 377.83L258.4 377.81L258.41 377.79L258.42 377.77L258.43 377.75L258.45 377.73L258.46 377.71L258.47 377.69L258.49 377.67L258.5 377.65L258.51 377.63L258.53 377.61L258.54 377.59L258.55 377.57L258.57 377.55L258.58 377.53L258.59 377.52L258.61 377.5L258.62 377.48L258.64 377.46L258.65 377.44L258.67 377.42L258.68 377.4L258.7 377.38L258.71 377.36L258.73 377.34L258.75 377.32L258.76 377.3L258.78 377.28L258.79 377.26L258.81 377.24L258.82 377.22L258.84 377.2L258.85 377.18L258.87 377.17L258.88 377.15L258.9 377.13L258.91 377.11L258.93 377.09L258.95 377.07L258.96 377.05L258.98 377.03L258.99 377.02L259.01 377L259.02 376.98L259.04 376.96L259.06 376.94L259.07 376.92L259.09 376.9L259.1 376.89L259.12 376.87L259.14 376.85L259.15 376.83L259.17 376.81L259.19 376.79L259.2 376.78L259.22 376.76L259.24 376.74L259.25 376.72L259.26 376.71L259.27 376.7L259.28 376.69L259.29 376.68L259.3 376.67L259.31 376.66L259.32 376.65L259.32 376.64L259.33 376.63L259.34 376.62L259.35 376.61L259.36 376.6L259.37 376.59L259.38 376.58L259.39 376.57L259.4 376.57L259.42 376.55L259.44 376.53L259.45 376.52L259.46 376.51L259.47 376.5L259.49 376.48L259.5 376.48L259.52 376.46L259.56 376.42L259.57 376.41L259.59 376.39L259.62 376.38L259.63 376.37L259.64 376.36L259.65 376.35L259.67 376.32L259.7 376.29L259.73 376.27L259.75 376.24L259.78 376.21L259.81 376.18L259.83 376.16L259.86 376.13L259.89 376.1L259.97 376.02L259.99 375.99L260.02 375.96L260.05 375.94L260.07 375.91L260.1 375.88L260.13 375.85L260.15 375.83L260.18 375.8L260.21 375.77L260.23 375.75L260.26 375.72L260.29 375.69L260.32 375.67L260.34 375.64L260.37 375.61L260.4 375.59L260.43 375.56L260.46 375.54L260.49 375.51L260.51 375.49L260.54 375.46L260.57 375.44L260.6 375.41L260.63 375.39L260.66 375.36L260.69 375.34L260.72 375.32L260.75 375.29L516.42 187.32L204.36 347.15L227.58 475.99ZM192.56 329.25L554.56 143.83L41.89 249.78L192.56 329.25Z" id="f2nNZoqfzs"></path></defs><g><g><g><use xlink:href="#f2nNZoqfzs" opacity="1" fill="#606060" fill-opacity="1"></use><g><use xlink:href="#f2nNZoqfzs" opacity="1" fill-opacity="0" stroke="#000000" stroke-width="1" stroke-opacity="0"></use></g></g></g></g></svg>