<?xml version="1.0" encoding="UTF-8" standalone="no"?>
<!DOCTYPE svg PUBLIC "-//W3C//DTD SVG 1.1//EN" "http://www.w3.org/Graphics/SVG/1.1/DTD/svg11.dtd">
<svg version="1.1" xmlns="http://www.w3.org/2000/svg" xmlns:xlink="http://www.w3.org/1999/xlink" preserveAspectRatio="xMidYMid meet" viewBox="-1 -1.0046329325445384 68 68.00000000000003" width="64" height="64"><defs><path d="M18.83 15.57C20.5 13.79 21.33 11.64 21.33 9.12C21.33 6.6 20.5 4.45 18.83 2.67C17.17 0.89 15.16 0 12.8 0C10.44 0 8.43 0.89 6.77 2.67C5.1 4.45 4.27 6.6 4.27 9.12C4.27 11.64 5.1 13.79 6.77 15.57C8.43 17.35 10.44 18.24 12.8 18.24C15.16 18.24 17.17 17.35 18.83 15.57Z" id="a8w1i8M6k"></path><path d="M32 36.48C35.53 36.48 38.55 35.15 41.05 32.48C43.55 29.8 44.8 26.58 44.8 22.8C44.8 19.02 43.55 15.8 41.05 13.13C38.55 10.45 35.53 9.12 32 9.12C28.47 9.12 25.45 10.45 22.95 13.13C20.45 15.8 19.2 19.02 19.2 22.8C19.2 26.58 20.45 29.8 22.95 32.48C25.45 35.15 28.47 36.48 32 36.48Z" id="bu1ZY04wO"></path><path d="M57.23 15.57C58.9 13.79 59.73 11.64 59.73 9.12C59.73 6.6 58.9 4.45 57.23 2.67C55.57 0.89 53.56 0 51.2 0C48.84 0 46.83 0.89 45.17 2.67C43.5 4.45 42.67 6.6 42.67 9.12C42.67 11.64 43.5 13.79 45.17 15.57C46.83 17.35 48.84 18.24 51.2 18.24C53.56 18.24 55.57 17.35 57.23 15.57Z" id="a5mjcdwBs1"></path><path d="M58.42 18.99C57.58 19.49 56.5 19.99 55.17 20.5C53.83 21.01 52.51 21.27 51.2 21.27C49.71 21.27 48.23 21 46.77 20.45C46.88 21.33 46.93 22.11 46.93 22.8C46.93 26.1 46.03 29.14 44.23 31.92C47.83 32.04 50.78 33.56 53.07 36.48C53.51 36.48 57.09 36.48 57.53 36.48C59.36 36.48 60.89 36 62.13 35.04C63.38 34.08 64 32.67 64 30.82C64 22.43 62.62 18.24 59.87 18.24C59.73 18.24 59.25 18.49 58.42 18.99Z" id="bZhhlODNA"></path><path d="M54 43.33C53.65 42.14 53.17 40.98 52.57 39.86C51.97 38.73 51.28 37.77 50.5 36.97C49.72 36.17 48.77 35.54 47.65 35.06C46.53 34.59 45.29 34.35 43.93 34.35C43.71 34.35 43.23 34.61 42.5 35.12C41.77 35.63 40.96 36.2 40.07 36.83C39.18 37.46 37.99 38.03 36.5 38.54C35.01 39.05 33.51 39.3 32 39.3C30.49 39.3 28.99 39.05 27.5 38.54C26.01 38.03 24.82 37.46 23.93 36.83C23.04 36.2 22.23 35.63 21.5 35.12C20.77 34.61 20.29 34.35 20.07 34.35C18.71 34.35 17.47 34.59 16.35 35.06C15.23 35.54 14.28 36.17 13.5 36.97C12.72 37.76 12.03 38.73 11.43 39.86C10.83 40.98 10.36 42.14 10 43.33C9.64 44.52 9.35 45.81 9.12 47.2C8.88 48.59 8.73 49.88 8.65 51.08C8.57 52.28 8.53 53.51 8.53 54.77C8.53 57.62 9.34 59.87 10.97 61.52C12.59 63.17 14.74 64 17.43 64C20.35 64 43.65 64 46.57 64C49.26 64 51.41 63.17 53.03 61.52C54.66 59.87 55.47 57.62 55.47 54.77C55.47 53.51 55.43 52.28 55.35 51.08C55.27 49.88 55.12 48.59 54.88 47.2C54.65 45.81 54.36 44.52 54 43.33Z" id="dDN5oat7d"></path><path d="M17.07 22.8C17.07 22.11 17.12 21.33 17.23 20.45C15.77 21 14.29 21.27 12.8 21.27C11.49 21.27 10.17 21.01 8.83 20.5C7.5 19.99 6.42 19.49 5.58 18.99C4.75 18.49 4.27 18.24 4.13 18.24C1.38 18.24 0 22.43 0 30.82C0 32.67 0.62 34.08 1.87 35.04C3.11 36 4.64 36.48 6.47 36.48C6.91 36.48 10.49 36.48 10.93 36.48C13.22 33.56 16.17 32.04 19.77 31.92C17.97 29.14 17.07 26.1 17.07 22.8Z" id="c6R973OQQ"></path></defs><g><g><use xlink:href="#a8w1i8M6k" opacity="1" fill="#50c3af" fill-opacity="1"></use><g><use xlink:href="#a8w1i8M6k" opacity="1" fill-opacity="0" stroke="#000000" stroke-width="1" stroke-opacity="0"></use></g></g><g><use xlink:href="#bu1ZY04wO" opacity="1" fill="#50c3af" fill-opacity="1"></use><g><use xlink:href="#bu1ZY04wO" opacity="1" fill-opacity="0" stroke="#000000" stroke-width="1" stroke-opacity="0"></use></g></g><g><use xlink:href="#a5mjcdwBs1" opacity="1" fill="#50c3af" fill-opacity="1"></use><g><use xlink:href="#a5mjcdwBs1" opacity="1" fill-opacity="0" stroke="#000000" stroke-width="1" stroke-opacity="0"></use></g></g><g><use xlink:href="#bZhhlODNA" opacity="1" fill="#50c3af" fill-opacity="1"></use><g><use xlink:href="#bZhhlODNA" opacity="1" fill-opacity="0" stroke="#000000" stroke-width="1" stroke-opacity="0"></use></g></g><g><use xlink:href="#dDN5oat7d" opacity="1" fill="#50c3af" fill-opacity="1"></use><g><use xlink:href="#dDN5oat7d" opacity="1" fill-opacity="0" stroke="#000000" stroke-width="1" stroke-opacity="0"></use></g></g><g><use xlink:href="#c6R973OQQ" opacity="1" fill="#50c3af" fill-opacity="1"></use><g><use xlink:href="#c6R973OQQ" opacity="1" fill-opacity="0" stroke="#000000" stroke-width="1" stroke-opacity="0"></use></g></g></g></svg>