<?xml version="1.0" encoding="UTF-8" standalone="no"?>
<!DOCTYPE svg PUBLIC "-//W3C//DTD SVG 1.1//EN" "http://www.w3.org/Graphics/SVG/1.1/DTD/svg11.dtd">
<svg version="1.1" xmlns="http://www.w3.org/2000/svg" xmlns:xlink="http://www.w3.org/1999/xlink" preserveAspectRatio="xMidYMid meet" viewBox="0 0 640 640" width="640" height="640"><defs><path d="M322.62 13.49L323.93 13.58L325.22 13.71L326.5 13.87L327.78 14.07L329.04 14.3L330.29 14.56L331.53 14.86L332.76 15.2L333.98 15.56L335.18 15.96L336.37 16.39L337.55 16.86L338.71 17.35L339.85 17.88L340.98 18.44L342.09 19.02L343.19 19.64L344.26 20.29L345.32 20.97L346.36 21.68L347.38 22.41L348.38 23.18L349.36 23.97L350.32 24.79L351.25 25.64L352.17 26.51L353.06 27.42L353.92 28.35L354.77 29.3L355.58 30.28L356.38 31.28L357.14 32.31L357.88 33.37L358.6 34.45L359.28 35.55L359.94 36.68L360.56 37.83L361.16 39L430.44 179.42L430.67 179.86L430.91 180.3L431.15 180.73L431.41 181.15L431.67 181.57L431.95 181.98L432.23 182.38L432.53 182.77L432.83 183.16L433.14 183.54L433.46 183.91L433.79 184.27L434.13 184.62L434.47 184.96L434.82 185.3L435.18 185.63L435.55 185.94L435.93 186.25L436.31 186.55L436.7 186.84L437.09 187.12L437.5 187.39L437.91 187.66L438.32 187.91L438.74 188.15L439.17 188.38L439.61 188.6L440.05 188.81L440.49 189.01L440.94 189.2L441.4 189.38L441.86 189.55L442.32 189.71L442.79 189.86L443.26 189.99L443.74 190.12L444.22 190.23L444.71 190.33L445.2 190.42L445.69 190.5L600.66 213.02L601.96 213.23L603.25 213.47L604.52 213.75L605.78 214.06L607.03 214.4L608.26 214.78L609.48 215.19L610.68 215.63L611.87 216.11L613.03 216.61L614.19 217.15L615.32 217.72L616.43 218.32L617.53 218.94L618.61 219.6L619.66 220.29L620.7 221L621.72 221.74L622.71 222.51L623.68 223.31L624.63 224.13L625.56 224.98L626.46 225.86L627.34 226.76L628.19 227.68L629.02 228.63L629.83 229.61L630.61 230.61L631.36 231.63L632.08 232.67L632.78 233.74L633.45 234.82L634.09 235.93L634.7 237.06L635.28 238.21L635.83 239.38L636.35 240.58L636.84 241.79L637.29 243.01L637.72 244.26L637.98 245.11L638.21 245.97L638.41 246.85L638.58 247.75L638.73 248.66L638.84 249.59L638.93 250.54L638.99 251.5L639.03 252.48L639.03 253.48L639.01 254.5L638.96 255.53L638.88 256.58L638.77 257.65L638.63 258.73L638.47 259.83L638.28 260.95L638.06 262.08L637.81 263.23L637.53 264.4L637.23 265.58L636.9 266.78L636.54 268L636.15 269.24L635.73 270.49L635.29 271.76L634.81 273.05L634.31 274.35L633.78 275.67L633.23 277.01L632.64 278.36L632.03 279.73L631.39 281.12L630.72 282.52L630.02 283.94L629.29 285.38L628.54 286.84L627.76 288.31L626.95 289.8L626.11 291.31L513.99 400.61L513.63 400.96L513.29 401.32L512.95 401.69L512.63 402.07L512.32 402.45L512.01 402.84L511.72 403.23L511.43 403.63L511.16 404.04L510.9 404.46L510.65 404.87L510.4 405.3L510.17 405.73L509.95 406.16L509.74 406.6L509.54 407.05L509.35 407.49L509.17 407.95L509.01 408.4L508.85 408.86L508.7 409.33L508.57 409.79L508.45 410.26L508.34 410.74L508.24 411.21L508.15 411.69L508.07 412.17L508 412.66L507.95 413.14L507.91 413.63L507.88 414.12L507.86 414.61L507.85 415.1L507.86 415.59L507.87 416.08L507.9 416.58L507.94 417.07L508 417.56L508.06 418.06L508.14 418.55L534.62 572.87L534.82 574.17L534.99 575.47L535.12 576.77L535.22 578.06L535.27 579.36L535.29 580.64L535.28 581.93L535.23 583.2L535.14 584.48L535.02 585.74L534.87 587L534.68 588.26L534.46 589.5L534.2 590.74L533.91 591.96L533.58 593.18L533.22 594.38L532.83 595.58L532.41 596.76L531.95 597.93L531.46 599.09L530.94 600.23L530.39 601.36L529.8 602.48L529.18 603.57L528.54 604.66L527.86 605.72L527.15 606.77L526.41 607.8L525.65 608.81L524.85 609.8L524.02 610.77L523.16 611.72L522.28 612.65L521.36 613.56L520.42 614.45L519.45 615.31L518.45 616.15L517.42 616.96L516.37 617.75L515.76 618.19L515.15 618.61L514.54 619.02L513.92 619.42L513.29 619.81L512.66 620.19L512.02 620.56L511.39 620.92L510.74 621.27L510.1 621.6L509.44 621.93L508.79 622.24L508.13 622.54L507.47 622.83L506.8 623.12L506.13 623.39L505.46 623.65L504.79 623.89L504.11 624.13L503.43 624.36L502.74 624.57L502.06 624.78L501.37 624.97L500.68 625.15L499.99 625.32L499.29 625.48L498.59 625.63L497.9 625.77L497.2 625.9L496.49 626.02L495.79 626.12L495.09 626.21L494.38 626.3L493.67 626.37L492.97 626.43L492.26 626.48L491.55 626.52L490.84 626.55L490.13 626.56L489.42 626.57L488.87 626.57L488.33 626.56L487.78 626.54L487.23 626.52L486.68 626.49L486.14 626.45L485.59 626.41L485.04 626.36L484.5 626.3L483.95 626.24L483.41 626.17L482.86 626.09L482.32 626.01L481.77 625.92L481.23 625.83L480.69 625.72L480.15 625.61L479.61 625.5L479.07 625.38L478.53 625.25L477.99 625.11L477.45 624.97L476.92 624.82L476.38 624.66L475.85 624.5L475.32 624.33L474.79 624.15L474.26 623.97L473.73 623.78L473.2 623.59L472.68 623.38L472.15 623.17L471.63 622.96L471.11 622.73L470.59 622.5L470.08 622.27L469.56 622.02L469.05 621.77L468.54 621.51L468.03 621.25L329.43 548.38L328.99 548.16L328.54 547.94L328.08 547.74L327.63 547.55L327.17 547.37L326.7 547.2L326.24 547.04L325.77 546.89L325.3 546.76L324.82 546.64L324.35 546.53L323.87 546.43L323.39 546.34L322.91 546.27L322.42 546.2L321.94 546.15L321.46 546.11L320.97 546.08L320.49 546.06L320 546.06L319.51 546.06L319.03 546.08L318.54 546.11L318.06 546.15L317.58 546.2L317.09 546.27L316.61 546.34L316.13 546.43L315.65 546.53L315.18 546.64L314.7 546.76L314.23 546.89L313.76 547.04L313.3 547.2L312.83 547.37L312.37 547.55L311.92 547.74L311.46 547.94L311.01 548.16L310.57 548.38L171.98 621.25L170.81 621.85L169.62 622.41L168.43 622.94L167.22 623.43L166.01 623.88L164.79 624.3L163.56 624.69L162.33 625.04L161.09 625.35L159.85 625.63L158.6 625.87L157.35 626.08L156.1 626.25L154.84 626.39L153.58 626.49L152.33 626.55L151.07 626.59L149.81 626.58L148.55 626.54L147.3 626.47L146.05 626.36L144.8 626.22L143.55 626.04L142.31 625.83L141.08 625.58L139.85 625.3L138.62 624.98L137.41 624.63L136.2 624.25L135 623.83L133.81 623.37L132.64 622.89L131.47 622.36L130.31 621.81L129.16 621.22L128.03 620.59L126.91 619.93L125.81 619.24L124.72 618.51L123.64 617.75L122.59 616.96L121.56 616.15L120.56 615.31L119.59 614.45L118.65 613.56L117.73 612.65L116.85 611.72L115.99 610.77L115.16 609.8L114.37 608.81L113.6 607.8L112.86 606.77L112.15 605.72L111.47 604.66L110.83 603.57L110.21 602.48L109.63 601.36L109.07 600.23L108.55 599.09L108.06 597.93L107.61 596.76L107.18 595.58L106.79 594.38L106.43 593.18L106.11 591.96L105.82 590.74L105.56 589.5L105.33 588.26L105.14 587L104.99 585.74L104.87 584.48L104.78 583.2L104.73 581.93L104.72 580.64L104.74 579.36L104.8 578.06L104.89 576.77L105.02 575.47L105.19 574.17L105.39 572.87L131.86 418.54L131.94 418.05L132 417.55L132.06 417.06L132.1 416.57L132.13 416.07L132.14 415.58L132.15 415.09L132.14 414.6L132.12 414.11L132.09 413.62L132.05 413.14L132 412.65L131.93 412.17L131.85 411.69L131.76 411.21L131.66 410.73L131.55 410.26L131.43 409.79L131.3 409.32L131.15 408.86L130.99 408.39L130.83 407.94L130.65 407.49L130.46 407.04L130.26 406.59L130.05 406.15L129.83 405.72L129.6 405.29L129.35 404.86L129.1 404.44L128.84 404.03L128.57 403.62L128.28 403.22L127.99 402.83L127.68 402.44L127.37 402.05L127.05 401.68L126.71 401.31L126.37 400.95L126.01 400.6L13.89 291.31L12.96 290.37L12.06 289.42L11.2 288.45L10.36 287.46L9.55 286.45L8.78 285.42L8.04 284.37L7.33 283.31L6.65 282.23L6 281.13L5.38 280.02L4.8 278.9L4.25 277.76L3.73 276.61L3.25 275.44L2.8 274.27L2.38 273.08L1.99 271.88L1.64 270.68L1.32 269.46L1.04 268.24L0.79 267.01L0.57 265.77L0.39 264.52L0.25 263.27L0.13 262.01L0.05 260.75L0.01 259.49L0 258.22L0.03 256.95L0.09 255.68L0.19 254.41L0.33 253.13L0.5 251.86L0.7 250.59L0.95 249.32L1.22 248.05L1.54 246.78L1.89 245.52L2.28 244.26L2.71 243.01L3.16 241.79L3.65 240.58L4.17 239.38L4.72 238.21L5.3 237.06L5.91 235.93L6.55 234.82L7.22 233.74L7.92 232.67L8.64 231.63L9.39 230.61L10.17 229.61L10.98 228.63L11.81 227.68L12.66 226.76L13.54 225.86L14.44 224.98L15.37 224.13L16.32 223.31L17.29 222.51L18.28 221.75L19.3 221L20.33 220.29L21.39 219.6L22.47 218.95L23.56 218.32L24.68 217.72L25.81 217.16L26.96 216.62L28.13 216.11L29.31 215.64L30.51 215.2L31.73 214.79L32.96 214.41L34.21 214.07L35.47 213.76L36.74 213.48L38.03 213.24L39.33 213.03L194.29 190.5L194.79 190.42L195.28 190.33L195.76 190.23L196.25 190.12L196.72 189.99L197.2 189.86L197.67 189.71L198.13 189.55L198.59 189.38L199.05 189.2L199.5 189.01L199.94 188.81L200.38 188.6L200.82 188.38L201.25 188.15L201.67 187.91L202.09 187.66L202.49 187.39L202.9 187.12L203.3 186.84L203.69 186.55L204.07 186.25L204.44 185.94L204.81 185.63L205.17 185.3L205.53 184.96L205.87 184.62L206.21 184.27L206.54 183.91L206.86 183.54L207.17 183.16L207.47 182.77L207.77 182.38L208.05 181.98L208.33 181.57L208.59 181.15L208.85 180.73L209.09 180.3L209.33 179.86L209.56 179.42L278.85 39L279.45 37.83L280.08 36.68L280.73 35.55L281.42 34.45L282.13 33.37L282.87 32.31L283.64 31.28L284.43 30.28L285.25 29.3L286.09 28.35L286.96 27.42L287.85 26.51L288.76 25.64L289.69 24.79L290.65 23.97L291.63 23.18L292.63 22.41L293.65 21.68L294.69 20.97L295.75 20.29L296.83 19.64L297.92 19.02L299.03 18.44L300.16 17.88L301.3 17.35L302.46 16.86L303.64 16.39L304.83 15.96L306.03 15.56L307.25 15.2L308.47 14.86L309.72 14.56L310.97 14.3L312.23 14.07L313.5 13.87L314.79 13.71L316.08 13.58L317.38 13.49L318.68 13.44L320 13.42L321.32 13.44L322.62 13.49ZM318.81 39.08L318.23 39.12L317.66 39.17L317.09 39.24L316.52 39.33L315.96 39.43L315.41 39.54L314.86 39.67L314.31 39.82L313.78 39.98L313.25 40.15L312.72 40.34L312.2 40.54L311.69 40.76L311.19 40.99L310.69 41.23L310.21 41.49L309.73 41.76L309.25 42.04L308.79 42.34L308.33 42.65L307.89 42.97L307.45 43.31L307.02 43.66L306.6 44.02L306.19 44.39L305.79 44.78L305.4 45.18L305.02 45.59L304.65 46.01L304.29 46.45L303.94 46.89L303.6 47.35L303.27 47.82L302.96 48.3L302.65 48.8L302.36 49.3L302.08 49.81L301.81 50.34L232.52 190.76L232.01 191.77L231.47 192.76L230.92 193.74L230.34 194.7L229.73 195.64L229.11 196.57L228.46 197.48L227.8 198.37L227.11 199.24L226.41 200.1L225.68 200.93L224.94 201.75L224.18 202.55L223.39 203.33L222.6 204.09L221.78 204.83L220.95 205.55L220.09 206.25L219.23 206.92L218.35 207.58L217.45 208.22L216.53 208.83L215.61 209.42L214.66 209.99L213.71 210.54L212.74 211.07L211.75 211.57L210.76 212.05L209.75 212.5L208.73 212.93L207.7 213.34L206.66 213.72L205.6 214.08L204.54 214.41L203.46 214.72L202.38 215L201.29 215.25L200.19 215.48L199.08 215.69L197.96 215.86L43.01 238.38L42.43 238.47L41.85 238.58L41.28 238.7L40.72 238.84L40.16 238.99L39.62 239.16L39.08 239.34L38.54 239.53L38.02 239.74L37.5 239.96L36.99 240.2L36.49 240.44L36 240.71L35.52 240.98L35.05 241.27L34.58 241.57L34.13 241.88L33.68 242.2L33.24 242.54L32.82 242.89L32.4 243.25L32 243.63L31.6 244.01L31.22 244.41L30.84 244.81L30.48 245.23L30.13 245.66L29.79 246.1L29.46 246.55L29.14 247.02L28.84 247.49L28.54 247.97L28.26 248.46L27.99 248.97L27.74 249.48L27.49 250L27.27 250.53L27.05 251.07L26.85 251.62L26.66 252.18L26.48 252.74L26.32 253.31L26.18 253.87L26.05 254.44L25.94 255L25.85 255.56L25.77 256.13L25.71 256.69L25.66 257.25L25.63 257.81L25.61 258.37L25.62 258.93L25.63 259.49L25.66 260.04L25.71 260.6L25.78 261.15L25.85 261.69L25.95 262.24L26.06 262.78L26.18 263.31L26.32 263.85L26.48 264.38L26.65 264.9L26.83 265.42L27.03 265.94L27.25 266.45L27.48 266.95L27.72 267.45L27.98 267.95L28.25 268.44L28.54 268.92L28.84 269.4L29.16 269.87L29.49 270.33L29.84 270.79L30.2 271.24L30.57 271.68L30.96 272.11L31.37 272.54L31.78 272.95L143.92 382.26L144.72 383.06L145.49 383.87L146.25 384.7L146.98 385.55L147.69 386.42L148.38 387.3L149.05 388.19L149.69 389.1L150.31 390.02L150.9 390.95L151.47 391.9L152.02 392.86L152.54 393.84L153.04 394.82L153.52 395.81L153.97 396.82L154.4 397.83L154.8 398.86L155.18 399.89L155.53 400.94L155.86 401.99L156.16 403.04L156.44 404.11L156.69 405.18L156.91 406.26L157.11 407.35L157.29 408.44L157.43 409.53L157.56 410.63L157.65 411.73L157.72 412.84L157.76 413.95L157.78 415.06L157.76 416.18L157.73 417.29L157.66 418.41L157.56 419.53L157.44 420.65L157.29 421.76L157.12 422.88L130.65 577.2L130.56 577.79L130.49 578.37L130.43 578.95L130.39 579.52L130.36 580.1L130.35 580.67L130.35 581.24L130.37 581.81L130.41 582.37L130.46 582.93L130.52 583.49L130.61 584.04L130.7 584.59L130.81 585.13L130.94 585.67L131.08 586.21L131.24 586.74L131.41 587.26L131.59 587.78L131.79 588.29L132.01 588.8L132.24 589.3L132.48 589.8L132.74 590.29L133.01 590.77L133.3 591.24L133.6 591.71L133.91 592.17L134.24 592.62L134.58 593.07L134.93 593.51L135.3 593.93L135.68 594.35L136.07 594.76L136.48 595.17L136.9 595.56L137.34 595.94L137.78 596.31L138.24 596.68L138.71 597.03L139.2 597.37L139.68 597.69L140.18 598L140.67 598.3L141.18 598.57L141.68 598.84L142.2 599.08L142.71 599.32L143.23 599.53L143.76 599.74L144.28 599.92L144.81 600.09L145.35 600.25L145.89 600.39L146.43 600.51L146.97 600.62L147.51 600.72L148.06 600.79L148.6 600.86L149.15 600.91L149.7 600.94L150.25 600.95L150.81 600.95L151.36 600.94L151.91 600.91L152.46 600.86L153.02 600.8L153.57 600.73L154.12 600.63L154.67 600.52L155.22 600.4L155.76 600.26L156.31 600.11L156.85 599.94L157.4 599.75L157.94 599.55L158.47 599.33L159.01 599.1L159.54 598.85L160.06 598.58L298.64 525.71L299.14 525.45L299.65 525.2L300.15 524.95L300.66 524.71L301.17 524.48L301.69 524.25L302.21 524.03L302.72 523.81L303.24 523.61L303.77 523.41L304.29 523.21L304.82 523.02L305.34 522.84L305.87 522.67L306.4 522.5L306.94 522.34L307.47 522.18L308 522.03L308.54 521.89L309.08 521.76L309.62 521.63L310.16 521.5L310.7 521.39L311.24 521.28L311.78 521.18L312.33 521.08L312.87 520.99L313.42 520.91L313.96 520.83L314.51 520.76L315.06 520.7L315.61 520.64L316.15 520.59L316.7 520.55L317.25 520.52L317.8 520.49L318.35 520.46L318.9 520.45L319.45 520.44L320 520.43L320.55 520.44L321.1 520.45L321.65 520.46L322.2 520.49L322.75 520.52L323.3 520.55L323.85 520.59L324.4 520.64L324.94 520.7L325.49 520.76L326.04 520.83L326.59 520.91L327.13 520.99L327.68 521.08L328.22 521.18L328.76 521.28L329.31 521.39L329.85 521.5L330.39 521.63L330.93 521.75L331.46 521.89L332 522.03L332.54 522.18L333.07 522.33L333.6 522.5L334.13 522.66L334.66 522.84L335.19 523.02L335.72 523.21L336.24 523.4L336.76 523.6L337.28 523.81L337.8 524.02L338.32 524.24L338.83 524.47L339.34 524.7L339.85 524.94L340.36 525.19L340.86 525.44L341.36 525.7L479.96 598.58L480.49 598.85L481.02 599.1L481.55 599.33L482.08 599.55L482.62 599.75L483.16 599.94L483.7 600.11L484.25 600.26L484.8 600.4L485.34 600.52L485.89 600.63L486.44 600.73L486.99 600.8L487.54 600.86L488.1 600.91L488.65 600.94L489.2 600.95L489.75 600.95L490.3 600.94L490.85 600.91L491.4 600.86L491.95 600.79L492.49 600.72L493.04 600.62L493.58 600.51L494.12 600.39L494.66 600.25L495.19 600.09L495.72 599.92L496.25 599.74L496.77 599.53L497.29 599.32L497.81 599.08L498.32 598.84L498.83 598.57L499.34 598.3L499.83 598L500.33 597.69L500.82 597.37L501.3 597.03L501.77 596.68L502.23 596.31L502.68 595.94L503.11 595.56L503.53 595.16L503.94 594.76L504.33 594.35L504.72 593.93L505.08 593.5L505.44 593.07L505.78 592.62L506.11 592.17L506.42 591.71L506.72 591.24L507.01 590.77L507.28 590.28L507.54 589.8L507.78 589.3L508.01 588.8L508.22 588.29L508.42 587.78L508.61 587.26L508.78 586.73L508.94 586.2L509.08 585.67L509.2 585.13L509.32 584.58L509.41 584.03L509.49 583.48L509.56 582.93L509.61 582.37L509.65 581.8L509.67 581.24L509.67 580.67L509.66 580.1L509.63 579.52L509.59 578.95L509.53 578.37L509.45 577.79L509.36 577.2L482.9 422.88L482.72 421.76L482.57 420.64L482.45 419.53L482.35 418.41L482.28 417.29L482.24 416.17L482.23 415.06L482.25 413.94L482.29 412.83L482.35 411.73L482.45 410.62L482.57 409.52L482.72 408.43L482.89 407.34L483.09 406.26L483.32 405.18L483.57 404.1L483.84 403.04L484.15 401.98L484.47 400.93L484.82 399.89L485.2 398.85L485.6 397.83L486.03 396.81L486.48 395.81L486.96 394.81L487.46 393.83L487.98 392.86L488.53 391.9L489.1 390.95L489.69 390.01L490.31 389.09L490.95 388.18L491.62 387.29L492.31 386.41L493.02 385.54L493.75 384.69L494.51 383.86L495.28 383.04L496.08 382.24L608.21 272.95L608.62 272.54L609.02 272.11L609.41 271.68L609.79 271.24L610.15 270.79L610.49 270.33L610.83 269.87L611.14 269.4L611.44 268.92L611.73 268.44L612.01 267.95L612.26 267.45L612.51 266.95L612.74 266.45L612.95 265.94L613.15 265.42L613.34 264.9L613.51 264.38L613.66 263.85L613.8 263.31L613.92 262.78L614.03 262.24L614.13 261.69L614.21 261.15L614.27 260.6L614.32 260.04L614.35 259.49L614.37 258.93L614.37 258.37L614.35 257.81L614.32 257.25L614.28 256.69L614.21 256.13L614.14 255.56L614.04 255L613.93 254.44L613.81 253.87L613.66 253.31L613.51 252.74L613.33 252.18L613.14 251.62L612.94 251.07L612.72 250.53L612.49 250L612.25 249.48L611.99 248.97L611.73 248.46L611.44 247.97L611.15 247.49L610.85 247.02L610.53 246.55L610.2 246.1L609.86 245.66L609.51 245.23L609.14 244.81L608.77 244.41L608.39 244.01L607.99 243.63L607.58 243.25L607.17 242.89L606.74 242.54L606.31 242.2L605.86 241.88L605.41 241.57L604.94 241.27L604.47 240.98L603.98 240.71L603.49 240.44L602.99 240.2L602.48 239.96L601.97 239.74L601.44 239.53L600.91 239.34L600.37 239.16L599.82 238.99L599.27 238.84L598.71 238.7L598.14 238.58L597.56 238.47L596.98 238.38L442.02 215.86L440.9 215.69L439.79 215.48L438.69 215.25L437.59 215L436.51 214.72L435.44 214.41L434.37 214.08L433.32 213.72L432.28 213.34L431.25 212.93L430.23 212.5L429.22 212.05L428.22 211.57L427.24 211.07L426.27 210.54L425.32 209.99L424.37 209.42L423.45 208.83L422.53 208.22L421.64 207.58L420.75 206.92L419.89 206.25L419.04 205.55L418.2 204.83L417.39 204.09L416.59 203.33L415.81 202.55L415.05 201.75L414.3 200.93L413.58 200.1L412.87 199.24L412.19 198.37L411.52 197.48L410.88 196.57L410.25 195.64L409.65 194.7L409.07 193.74L408.51 192.76L407.98 191.77L407.46 190.76L338.17 50.34L337.9 49.81L337.62 49.3L337.33 48.8L337.03 48.3L336.71 47.82L336.38 47.35L336.04 46.89L335.7 46.45L335.34 46.01L334.96 45.59L334.58 45.18L334.19 44.78L333.79 44.39L333.38 44.02L332.96 43.66L332.53 43.31L332.1 42.97L331.65 42.65L331.19 42.34L330.73 42.04L330.26 41.76L329.78 41.49L329.29 41.23L328.79 40.99L328.29 40.76L327.78 40.54L327.26 40.34L326.74 40.15L326.2 39.98L325.67 39.82L325.12 39.67L324.57 39.54L324.02 39.43L323.46 39.33L322.89 39.24L322.32 39.17L321.74 39.12L321.16 39.08L320.58 39.06L319.99 39.05L319.4 39.06L318.81 39.08Z" id="a5xolh6xRS"></path></defs><g><g><g><use xlink:href="#a5xolh6xRS" opacity="1" fill="#ffffff" fill-opacity="1"></use><g><use xlink:href="#a5xolh6xRS" opacity="1" fill-opacity="0" stroke="#000000" stroke-width="1" stroke-opacity="0"></use></g></g></g></g></svg>