<?xml version="1.0" encoding="UTF-8" standalone="no"?>
<!-- Generator: Adobe Illustrator 21.0.0, SVG Export Plug-In . SVG Version: 6.00 Build 0)  -->

<svg
   xmlns:dc="http://purl.org/dc/elements/1.1/"
   xmlns:cc="http://creativecommons.org/ns#"
   xmlns:rdf="http://www.w3.org/1999/02/22-rdf-syntax-ns#"
   xmlns:svg="http://www.w3.org/2000/svg"
   xmlns="http://www.w3.org/2000/svg"
   xmlns:sodipodi="http://sodipodi.sourceforge.net/DTD/sodipodi-0.dtd"
   xmlns:inkscape="http://www.inkscape.org/namespaces/inkscape"
   version="1.1"
   id="Layer_1"
   x="0px"
   y="0px"
   viewBox="0 0 62.769 50.501"
   style="enable-background:new 0 0 62.769 50.501;"
   xml:space="preserve"
   sodipodi:docname="tw.svg"
   inkscape:version="0.92.3 (2405546, 2018-03-11)"><metadata
   id="metadata3868"><rdf:RDF><cc:Work
       rdf:about=""><dc:format>image/svg+xml</dc:format><dc:type
         rdf:resource="http://purl.org/dc/dcmitype/StillImage" /></cc:Work></rdf:RDF></metadata><defs
   id="defs3866" /><sodipodi:namedview
   pagecolor="#ffffff"
   bordercolor="#666666"
   borderopacity="1"
   objecttolerance="10"
   gridtolerance="10"
   guidetolerance="10"
   inkscape:pageopacity="0"
   inkscape:pageshadow="2"
   inkscape:window-width="1366"
   inkscape:window-height="705"
   id="namedview3864"
   showgrid="false"
   inkscape:zoom="7.5049848"
   inkscape:cx="36.048662"
   inkscape:cy="21.511537"
   inkscape:window-x="-8"
   inkscape:window-y="-8"
   inkscape:window-maximized="1"
   inkscape:current-layer="Layer_1" />
<g
   id="g3861"
   style="fill:#b3b3b3">
	<path
   d="M62.77,5.992c-2.283,1.141-4.85,1.712-7.418,1.997c2.568-1.712,4.565-3.994,5.706-7.133   c-2.568,1.427-5.136,2.568-8.274,3.138C50.501,1.426,47.078,0,43.369,0C36.236,0,30.53,5.706,30.53,12.839   c0,1.141,0,1.997,0.285,2.853C20.258,15.121,10.843,9.986,4.281,2.282C3.14,4.279,2.569,6.276,2.569,8.844   c0,4.565,2.283,8.274,5.706,10.557c-1.997,0-3.994-0.571-5.706-1.712v0.285c0,6.277,4.28,11.413,10.271,12.554   c-1.141,0.285-2.283,0.571-3.424,0.571c-0.856,0-1.712,0-2.283-0.285c1.712,5.136,6.277,8.845,11.983,8.845   c-4.28,3.424-9.986,5.421-15.978,5.421c-1.141,0-1.997,0-3.138-0.285c5.706,3.709,12.269,5.706,19.687,5.706   c23.681,0,36.52-19.401,36.52-36.52v-1.712C59.061,10.842,61.058,8.56,62.77,5.992z"
   id="path3859"
   style="fill:#b3b3b3" />
</g>
<path
   style="fill:#666666;stroke-width:0.09421828;opacity:0"
   d="M 16.422637,50.329076 C 11.845418,49.911012 7.4253231,48.697735 3.6560599,46.824762 2.734287,46.366728 0.39548208,45.033823 0.43834474,44.990961 c 0.0170838,-0.01708 0.47247002,0.01588 1.01196946,0.07325 1.6318506,0.173541 4.6591491,-0.02199 6.8224416,-0.440658 2.2782952,-0.440925 4.6762352,-1.262523 6.7524852,-2.313581 1.288019,-0.652033 3.641166,-2.14168 3.979447,-2.519166 l 0.179485,-0.200287 -0.603467,-3.77e-4 c -1.416072,-8.45e-4 -3.534909,-0.542579 -4.999704,-1.2782 -2.694638,-1.35325 -4.8866712,-3.765547 -6.1038136,-6.717148 -0.2366758,-0.573945 -0.2573462,-0.679192 -0.1216509,-0.619406 0.08991,0.03961 0.7782463,0.09011 1.5296371,0.112201 1.2030134,0.03538 1.5113814,0.01062 2.5821404,-0.207332 0.668787,-0.13613 1.259395,-0.274344 1.312464,-0.307142 0.05307,-0.0328 -0.266922,-0.156105 -0.711088,-0.274013 C 9.832025,29.705353 7.9504565,28.641835 6.3688717,27.077396 4.1896295,24.921779 2.9320639,22.177356 2.6691494,19.003382 2.61766,18.381787 2.5748612,17.838525 2.574041,17.796131 c -8.197e-4,-0.04239 0.1251903,0.01313 0.2800233,0.123376 0.4162881,0.296424 1.5462819,0.796692 2.4037065,1.064164 0.821698,0.256328 2.2666248,0.481133 2.7607449,0.429522 L 8.3295852,19.380701 7.7377224,18.956718 C 6.9128674,18.365831 5.5271876,16.965067 4.9385048,16.127029 3.1800513,13.623725 2.4549481,10.932428 2.675886,7.7290802 2.7958303,5.9900244 3.2118506,4.4728429 3.9931876,2.9250232 L 4.2823329,2.3522294 4.766487,2.9050202 c 2.065729,2.3585793 4.6254998,4.6031846 7.382998,6.473984 4.999854,3.3921058 10.882947,5.5786658 16.615747,6.1755478 2.274458,0.236809 2.105446,0.237403 2.036345,-0.0071 -0.292709,-1.035881 -0.296564,-3.5547 -0.0077,-5.06337 C 32.039965,3.9746377 37.977905,-0.5168286 44.517855,0.10316429 47.588549,0.39426857 50.027717,1.4485484 52.135424,3.3957 l 0.697792,0.6446371 0.80325,-0.1762965 C 55.513849,3.4519939 57.438979,2.7451034 59.516892,1.7048 c 0.719645,-0.3602892 1.328327,-0.6351906 1.352626,-0.6108921 0.06697,0.066975 -0.525195,1.3243866 -1.032707,2.1928455 -0.854342,1.461959 -2.459781,3.2056535 -3.893332,4.2286133 -0.339551,0.242299 -0.597215,0.4606949 -0.572586,0.4853241 0.05788,0.057881 1.827986,-0.2158376 2.97888,-0.4606375 1.002208,-0.2131736 2.336818,-0.6218532 3.380239,-1.0350853 0.382261,-0.1513886 0.710862,-0.2594086 0.730227,-0.2400445 0.08512,0.08512 -0.99804,1.5062912 -2.08203,2.7317488 -0.959201,1.0843817 -3.030695,2.7167307 -3.909598,3.0807847 l -0.256245,0.10614 -0.05981,2.185277 c -0.115319,4.213717 -0.676978,7.468646 -1.945977,11.277343 -3.171526,9.518828 -9.79233,17.182487 -18.392005,21.288963 -3.547062,1.693778 -7.147448,2.718494 -11.47442,3.26577 -1.374145,0.173802 -6.507854,0.256879 -7.917521,0.128126 z"
   id="path3874"
   inkscape:connector-curvature="0" /><path
   style="opacity:0;fill:#808080;stroke-width:0.13324477"
   d="M 16.651165,50.330531 C 11.009205,49.857818 5.4923794,48.103627 1.071294,45.376585 L 0.57767371,45.072107 3.2698328,45.061164 c 1.8720268,-0.0076 3.0980724,-0.07973 4.0246068,-0.236758 3.0632154,-0.519131 6.2117284,-1.598629 8.5942874,-2.946636 1.421202,-0.80409 3.197875,-2.018488 3.197875,-2.185823 0,-0.06053 -0.524651,-0.147261 -1.165892,-0.19274 C 13.689064,39.19909 9.7942491,36.432622 7.8284777,32.330746 7.5713989,31.794313 7.3610619,31.29099 7.3610619,31.212251 c 0,-0.09566 0.4105995,-0.125204 1.2375135,-0.08904 1.2675064,0.05544 2.6290286,-0.09782 3.6925436,-0.415634 l 0.599601,-0.179183 -0.799469,-0.22969 C 9.8331272,29.649941 8.1455391,28.707918 6.5837808,27.2244 4.3048959,25.059683 2.9529316,22.223849 2.7207528,19.121448 2.6672278,18.406241 2.6550881,17.83705 2.6937759,17.85658 c 0.038688,0.01953 0.4301023,0.223065 0.86981,0.4523 1.1426342,0.595699 2.5002426,0.982357 3.7308537,1.062578 0.9918888,0.06466 1.0474408,0.05473 0.7994686,-0.142821 C 5.0234342,16.782438 3.3982773,14.270347 2.837499,11.103529 2.6572376,10.08556 2.6572566,7.4400915 2.8375325,6.4222832 c 0.219506,-1.239294 1.0213779,-3.4771701 1.3973921,-3.899863 0.021823,-0.024532 0.9290023,0.8507347 2.0159535,1.9450377 1.0869512,1.094303 2.5538986,2.4494131 3.2598831,3.0113557 3.7736608,3.0037224 8.2435768,5.3674514 12.8403378,6.7900784 2.263697,0.70058 6.2581,1.422743 7.86943,1.422743 h 0.593941 l -0.101097,-0.766158 c -0.163422,-1.238471 -0.09009,-3.478882 0.153094,-4.677327 0.515006,-2.5380177 1.562446,-4.4344627 3.543284,-6.4153003 1.470513,-1.4705129 2.218591,-1.9863455 3.993575,-2.7537451 2.01913,-0.87295451 4.895118,-1.2083938 7.180738,-0.83752158 2.319029,0.37629328 4.800239,1.56033388 6.419517,3.06341138 l 0.836454,0.77643 1.477751,-0.3751474 c 1.675613,-0.4253771 3.463165,-1.1023337 5.189187,-1.9651753 0.648881,-0.3243772 1.217344,-0.5522165 1.263251,-0.5063097 0.135496,0.1354966 -0.998702,2.2320334 -1.73037,3.1985445 -0.820864,1.0843358 -1.966105,2.217525 -2.963125,2.9319405 -0.407992,0.2923461 -0.743094,0.5662628 -0.744675,0.6087039 -0.01046,0.2807517 4.133309,-0.6066871 5.858352,-1.2546391 0.692989,-0.2602973 1.27285,-0.4603984 1.288579,-0.4446692 0.01573,0.015729 -0.30693,0.4770863 -0.717022,1.0252378 -1.182672,1.5808293 -3.141997,3.4478146 -4.467422,4.2568836 l -1.165892,0.711686 -1.12e-4,1.678266 c -2.67e-4,3.111271 -0.408449,6.145536 -1.270143,9.440354 -1.266674,4.843315 -3.831906,9.96042 -6.963229,13.890188 -1.253375,1.572969 -3.987801,4.316066 -5.490728,5.508139 -5.048572,4.004362 -11.016003,6.478287 -17.701084,7.338358 -2.036539,0.262013 -6.136236,0.367275 -8.052188,0.206746 z"
   id="path3876"
   inkscape:connector-curvature="0" /><path
   style="opacity:0;fill:#808080;stroke-width:0.13324477"
   d="M 16.651165,50.330531 C 11.009205,49.857818 5.4923794,48.103627 1.071294,45.376585 L 0.57767371,45.072107 3.2698328,45.061164 c 1.8720268,-0.0076 3.0980724,-0.07973 4.0246068,-0.236758 3.0632154,-0.519131 6.2117284,-1.598629 8.5942874,-2.946636 1.421202,-0.80409 3.197875,-2.018488 3.197875,-2.185823 0,-0.06053 -0.524651,-0.147261 -1.165892,-0.19274 C 13.689064,39.19909 9.7942491,36.432622 7.8284777,32.330746 7.5713989,31.794313 7.3610619,31.29099 7.3610619,31.212251 c 0,-0.09566 0.4105995,-0.125204 1.2375135,-0.08904 1.2675064,0.05544 2.6290286,-0.09782 3.6925436,-0.415634 l 0.599601,-0.179183 -0.799469,-0.22969 C 9.8331272,29.649941 8.1455391,28.707918 6.5837808,27.2244 4.3048959,25.059683 2.9529316,22.223849 2.7207528,19.121448 2.6672278,18.406241 2.6550881,17.83705 2.6937759,17.85658 c 0.038688,0.01953 0.4301023,0.223065 0.86981,0.4523 1.1426342,0.595699 2.5002426,0.982357 3.7308537,1.062578 0.9918888,0.06466 1.0474408,0.05473 0.7994686,-0.142821 C 5.0234342,16.782438 3.3982773,14.270347 2.837499,11.103529 2.6572376,10.08556 2.6572566,7.4400915 2.8375325,6.4222832 c 0.219506,-1.239294 1.0213779,-3.4771701 1.3973921,-3.899863 0.021823,-0.024532 0.9290023,0.8507347 2.0159535,1.9450377 1.0869512,1.094303 2.5538986,2.4494131 3.2598831,3.0113557 3.7736608,3.0037224 8.2435768,5.3674514 12.8403378,6.7900784 2.263697,0.70058 6.2581,1.422743 7.86943,1.422743 h 0.593941 l -0.101097,-0.766158 c -0.163422,-1.238471 -0.09009,-3.478882 0.153094,-4.677327 0.515006,-2.5380177 1.562446,-4.4344627 3.543284,-6.4153003 1.470513,-1.4705129 2.218591,-1.9863455 3.993575,-2.7537451 2.01913,-0.87295451 4.895118,-1.2083938 7.180738,-0.83752158 2.319029,0.37629328 4.800239,1.56033388 6.419517,3.06341138 l 0.836454,0.77643 1.477751,-0.3751474 c 1.675613,-0.4253771 3.463165,-1.1023337 5.189187,-1.9651753 0.648881,-0.3243772 1.217344,-0.5522165 1.263251,-0.5063097 0.135496,0.1354966 -0.998702,2.2320334 -1.73037,3.1985445 -0.820864,1.0843358 -1.966105,2.217525 -2.963125,2.9319405 -0.407992,0.2923461 -0.743094,0.5662628 -0.744675,0.6087039 -0.01046,0.2807517 4.133309,-0.6066871 5.858352,-1.2546391 0.692989,-0.2602973 1.27285,-0.4603984 1.288579,-0.4446692 0.01573,0.015729 -0.30693,0.4770863 -0.717022,1.0252378 -1.182672,1.5808293 -3.141997,3.4478146 -4.467422,4.2568836 l -1.165892,0.711686 -1.12e-4,1.678266 c -2.67e-4,3.111271 -0.408449,6.145536 -1.270143,9.440354 -1.266674,4.843315 -3.831906,9.96042 -6.963229,13.890188 -1.253375,1.572969 -3.987801,4.316066 -5.490728,5.508139 -5.048572,4.004362 -11.016003,6.478287 -17.701084,7.338358 -2.036539,0.262013 -6.136236,0.367275 -8.052188,0.206746 z"
   id="path4683"
   inkscape:connector-curvature="0" /></svg>